<svg width="13" height="8" viewBox="0 0 13 8" fill="none" xmlns="http://www.w3.org/2000/svg">
<g clip-path="url(#clip0_1_2166)">
<path d="M0.658794 4.74003H8.89879V6.94003C8.89879 7.0867 8.93212 7.17336 8.99879 7.20003C9.07879 7.2267 9.16546 7.1867 9.25879 7.08003L11.9788 4.36003C12.0855 4.25336 12.1388 4.13336 12.1388 4.00003C12.1388 3.85336 12.0855 3.73336 11.9788 3.64003L9.25879 0.900027C9.16546 0.806693 9.07879 0.77336 8.99879 0.800026C8.93212 0.826693 8.89879 0.91336 8.89879 1.06003V3.26003H0.658794C0.512127 3.26003 0.385461 3.31336 0.278794 3.42003C0.185461 3.51336 0.138794 3.6267 0.138794 3.76003V4.22003C0.138794 4.3667 0.185461 4.49336 0.278794 4.60003C0.385461 4.69336 0.512127 4.74003 0.658794 4.74003Z" fill="#191919"/>
</g>
<defs>
<clipPath id="clip0_1_2166">
<rect width="12" height="8" fill="white" transform="translate(0.138794)"/>
</clipPath>
</defs>
</svg>
