<svg width="278" height="278" viewBox="0 0 278 278" fill="none" xmlns="http://www.w3.org/2000/svg">
<g clip-path="url(#clip0_1_2213)">
<g clip-path="url(#clip1_1_2213)">
<g clip-path="url(#clip2_1_2213)">
<path d="M224.319 29.7208C227.268 32.1532 231.151 35.4654 233.996 38.0014C226.078 30.6007 208.327 33.7057 182.864 49.0248C182.864 49.0248 182.812 49.0248 182.812 48.9733C204.084 31.1181 218.419 25.0629 224.319 29.7208Z" fill="#191919"/>
<path d="M224.319 29.7208C227.268 32.1532 231.151 35.4654 233.996 38.0014C226.078 30.6007 208.327 33.7057 182.864 49.0248C182.864 49.0248 182.812 49.0248 182.812 48.9733C204.084 31.1181 218.419 25.0629 224.319 29.7208Z" fill="#191919"/>
<path d="M224.319 29.7211C227.268 32.1537 231.151 35.4658 233.996 38.0018C226.078 30.601 208.327 33.7062 182.863 49.0253C182.863 49.0253 182.812 49.0253 182.812 48.9736C204.083 31.1184 218.419 25.0633 224.319 29.7211ZM224.007 29.4623C218.108 24.8563 203.823 31.0667 182.553 49.1805C208.275 33.7581 226.181 30.6527 234.151 38.1571C231.151 35.5176 227.113 31.9983 224.007 29.4623Z" fill="#191919"/>
<path d="M224.319 29.7211C227.268 32.1537 231.151 35.4658 233.996 38.0018C226.078 30.601 208.327 33.7062 182.863 49.0253C182.863 49.0253 182.812 49.0253 182.812 48.9736C204.083 31.1184 218.419 25.0633 224.319 29.7211ZM224.007 29.4623C218.108 24.8563 203.823 31.0667 182.553 49.1805C208.275 33.7581 226.181 30.6527 234.151 38.1571C231.151 35.5176 227.113 31.9983 224.007 29.4623Z" fill="#191919"/>
<path d="M207.344 18.3858L208.38 18.9551C211.07 20.6112 214.643 22.7848 217.281 24.5445C212.934 21.4909 201.134 29.4093 182.813 48.9722C182.813 48.9722 182.762 48.9722 182.762 48.9203C189.593 38.6733 203.929 17.2472 207.344 18.3858Z" fill="#191919"/>
<path d="M207.344 18.3858L208.38 18.9551C211.07 20.6112 214.643 22.7848 217.281 24.5445C212.934 21.4909 201.134 29.4093 182.813 48.9722C182.813 48.9722 182.762 48.9722 182.762 48.9203C189.593 38.6733 203.929 17.2472 207.344 18.3858Z" fill="#191919"/>
<path d="M207.344 18.3854L208.379 18.9546C211.07 20.6108 214.641 22.7845 217.279 24.5442C212.932 21.4906 201.133 29.4089 182.812 48.9719C182.812 48.9719 182.76 48.9719 182.76 48.92C189.591 38.6728 203.928 17.2468 207.344 18.3854ZM206.98 18.1784C205.066 17.0916 196.837 27.3387 182.553 49.2307C201.133 29.5642 213.139 21.6977 217.591 24.803C214.848 23.0433 211.174 20.6625 208.379 18.9546L206.98 18.1784Z" fill="#191919"/>
<path d="M207.344 18.3854L208.379 18.9546C211.07 20.6108 214.641 22.7845 217.279 24.5442C212.932 21.4906 201.133 29.4089 182.812 48.9719C182.812 48.9719 182.76 48.9719 182.76 48.92C189.591 38.6728 203.928 17.2468 207.344 18.3854ZM206.98 18.1784C205.066 17.0916 196.837 27.3387 182.553 49.2307C201.133 29.5642 213.139 21.6977 217.591 24.803C214.848 23.0433 211.174 20.6625 208.379 18.9546L206.98 18.1784Z" fill="#191919"/>
<path d="M189.591 9.95014L194.923 12.1755L199.994 14.5045C199.89 14.401 194.145 25.8384 182.656 48.9208H182.605C190.109 23.9236 192.231 10.9335 189.591 9.95014Z" fill="#191919"/>
<path d="M189.591 9.95014L194.923 12.1755L199.994 14.5045C199.89 14.401 194.145 25.8384 182.656 48.9208H182.605C190.109 23.9236 192.231 10.9335 189.591 9.95014Z" fill="#191919"/>
<path d="M189.591 9.94925L194.923 12.1747L199.994 14.5036C199.89 14.4001 194.147 25.8376 182.656 48.9197H182.605C190.109 23.9227 192.231 10.9326 189.591 9.94925ZM189.281 9.794C192.024 10.7773 190.005 23.9744 182.553 49.2304C194.198 25.9928 200.149 14.5553 200.356 14.6588L194.974 12.1229L189.281 9.794Z" fill="#191919"/>
<path d="M189.591 9.94925L194.923 12.1747L199.994 14.5036C199.89 14.4001 194.147 25.8376 182.656 48.9197H182.605C190.109 23.9227 192.231 10.9326 189.591 9.94925ZM189.281 9.794C192.024 10.7773 190.005 23.9744 182.553 49.2304C194.198 25.9928 200.149 14.5553 200.356 14.6588L194.974 12.1229L189.281 9.794Z" fill="#191919"/>
<path d="M170.65 4.05035C173.756 4.87843 177.896 5.96524 180.949 6.89681L181.88 7.20735C186.539 8.70819 187.16 22.7334 182.606 48.9209H182.553C182.968 20.9221 178.361 5.80999 170.65 4.05035Z" fill="#191919"/>
<path d="M170.65 4.05035C173.756 4.87843 177.896 5.96524 180.949 6.89681L181.88 7.20735C186.539 8.70819 187.16 22.7334 182.606 48.9209H182.553C182.968 20.9221 178.361 5.80999 170.65 4.05035Z" fill="#191919"/>
<path d="M170.651 4.05284C173.756 4.88089 177.896 5.96773 180.95 6.8993L181.881 7.2098C186.539 8.71066 187.16 22.7359 182.606 48.9233H182.555C182.969 20.9246 178.362 5.81244 170.651 4.05284ZM170.289 3.94932C173.756 5.34666 182.917 9.12469 182.606 49.2338C187.315 22.8393 186.85 8.76242 182.243 7.31332L180.95 6.8993C177.741 5.96773 173.497 4.72562 170.289 3.94932Z" fill="#191919"/>
<path d="M170.651 4.05284C173.756 4.88089 177.896 5.96773 180.95 6.8993L181.881 7.2098C186.539 8.71066 187.16 22.7359 182.606 48.9233H182.555C182.969 20.9246 178.362 5.81244 170.651 4.05284ZM170.289 3.94932C173.756 5.34666 182.917 9.12469 182.606 49.2338C187.315 22.8393 186.85 8.76242 182.243 7.31332L180.95 6.8993C177.741 5.96773 173.497 4.72562 170.289 3.94932Z" fill="#191919"/>
<path d="M149.795 0.789703C153.521 1.20373 158.438 1.77302 162.164 2.34231C172.153 3.99842 179.812 19.7315 182.555 48.8687H182.503C175.206 18.1272 163.095 1.87653 149.795 0.789703Z" fill="#191919"/>
<path d="M149.795 0.789703C153.521 1.20373 158.438 1.77302 162.164 2.34231C172.153 3.99842 179.812 19.7315 182.555 48.8687H182.503C175.206 18.1272 163.095 1.87653 149.795 0.789703Z" fill="#191919"/>
<path d="M149.796 0.789703C153.522 1.20373 158.439 1.77302 162.166 2.34231C172.154 3.99842 179.813 19.7315 182.556 48.8687H182.505C175.208 18.1272 163.097 1.87653 149.796 0.789703ZM149.382 0.789703C162.838 1.82478 175.104 18.2307 182.556 49.2311C179.968 19.8868 172.516 4.10194 162.528 2.39407C158.698 1.82478 153.626 1.15198 149.796 0.789703H149.382Z" fill="#191919"/>
<path d="M149.796 0.789703C153.522 1.20373 158.439 1.77302 162.166 2.34231C172.154 3.99842 179.813 19.7315 182.556 48.8687H182.505C175.208 18.1272 163.097 1.87653 149.796 0.789703ZM149.382 0.789703C162.838 1.82478 175.104 18.2307 182.556 49.2311C179.968 19.8868 172.516 4.10194 162.528 2.39407C158.698 1.82478 153.626 1.15198 149.796 0.789703H149.382Z" fill="#191919"/>
<path d="M126.143 0.945671L132.095 0.531641L140.22 0.376381C158.179 2.18776 170.445 16.2129 182.451 48.8697H182.4C166.304 15.4367 145.499 -0.91746 126.143 0.945671Z" fill="#191919"/>
<path d="M126.143 0.945671L132.095 0.531641L140.22 0.376381C158.179 2.18776 170.445 16.2129 182.451 48.8697H182.4C166.304 15.4367 145.499 -0.91746 126.143 0.945671Z" fill="#191919"/>
<path d="M126.142 0.945671L132.094 0.531641L140.219 0.376381C158.178 2.18776 170.444 16.2129 182.45 48.8696H182.398C166.302 15.4367 145.498 -0.91746 126.142 0.945671ZM125.625 0.997425C145.187 -0.969215 166.251 15.4885 182.553 49.2318C171.892 17.0928 156.418 0.531641 140.633 0.376381C138.045 0.428135 134.63 0.428135 132.094 0.531641L125.625 0.997425Z" fill="#191919"/>
<path d="M126.142 0.945671L132.094 0.531641L140.219 0.376381C158.178 2.18776 170.444 16.2129 182.45 48.8696H182.398C166.302 15.4367 145.498 -0.91746 126.142 0.945671ZM125.625 0.997425C145.187 -0.969215 166.251 15.4885 182.553 49.2318C171.892 17.0928 156.418 0.531641 140.633 0.376381C138.045 0.428135 134.63 0.428135 132.094 0.531641L125.625 0.997425Z" fill="#191919"/>
<path d="M99.1274 6.17205C103.112 5.13698 108.391 3.73963 112.428 2.91156L115.326 2.39403C137.218 -1.43574 162.164 14.4009 182.348 48.8687H182.296C155.849 13.0553 124.487 -1.4875 99.1274 6.17205Z" fill="#191919"/>
<path d="M99.1274 6.17205C103.112 5.13698 108.391 3.73963 112.428 2.91156L115.326 2.39403C137.218 -1.43574 162.164 14.4009 182.348 48.8687H182.296C155.849 13.0553 124.487 -1.4875 99.1274 6.17205Z" fill="#191919"/>
<path d="M99.1292 6.17353C103.114 5.13847 108.393 3.74113 112.43 2.91305L115.328 2.39552C137.22 -1.43425 162.165 14.4024 182.349 48.8703H182.298C155.851 13.0568 124.488 -1.486 99.1292 6.17353ZM98.6116 6.32878C124.126 -1.53776 155.851 13.1085 182.556 49.1806C162.528 14.5059 137.686 -1.486 115.794 2.24027L112.43 2.86129C108.29 3.89638 102.752 5.19022 98.6116 6.32878Z" fill="#191919"/>
<path d="M99.1292 6.17353C103.114 5.13847 108.393 3.74113 112.43 2.91305L115.328 2.39552C137.22 -1.43425 162.165 14.4024 182.349 48.8703H182.298C155.851 13.0568 124.488 -1.486 99.1292 6.17353ZM98.6116 6.32878C124.126 -1.53776 155.851 13.1085 182.556 49.1806C162.528 14.5059 137.686 -1.486 115.794 2.24027L112.43 2.86129C108.29 3.89638 102.752 5.19022 98.6116 6.32878Z" fill="#191919"/>
<path d="M69.2642 19.162C74.4912 16.3673 81.5297 12.8998 86.9638 10.5191C114.497 -0.711405 150.88 12.3305 182.294 48.9204H182.243C143.323 11.7095 99.2812 1.66926 69.2642 19.162Z" fill="#191919"/>
<path d="M69.2642 19.162C74.4912 16.3673 81.5297 12.8998 86.9638 10.5191C114.497 -0.711405 150.88 12.3305 182.294 48.9204H182.243C143.323 11.7095 99.2812 1.66926 69.2642 19.162Z" fill="#191919"/>
<path d="M69.2655 19.1618C74.4927 16.3672 81.531 12.8997 86.9653 10.519C114.498 -0.711545 150.881 12.3304 182.296 48.9201H182.244C143.325 11.7093 99.2826 1.66913 69.2655 19.1618ZM68.6963 19.4724C98.8167 1.77263 143.325 11.7611 182.555 49.2307C151.347 12.4856 115.067 -0.815054 87.5345 10.2602C75.1137 15.7461 74.9067 15.8496 68.6963 19.4724Z" fill="#191919"/>
<path d="M69.2655 19.1618C74.4927 16.3672 81.531 12.8997 86.9653 10.519C114.498 -0.711545 150.881 12.3304 182.296 48.9201H182.244C143.325 11.7093 99.2826 1.66913 69.2655 19.1618ZM68.6963 19.4724C98.8167 1.77263 143.325 11.7611 182.555 49.2307C151.347 12.4856 115.067 -0.815054 87.5345 10.2602C75.1137 15.7461 74.9067 15.8496 68.6963 19.4724Z" fill="#191919"/>
<path d="M39.5066 42.3477L44.4748 37.4829C47.9423 34.4812 52.6001 30.4961 56.2746 27.7013C87.2751 4.61929 137.424 11.5025 182.243 48.9203C182.243 48.9203 182.243 48.9203 182.191 48.9723C129.04 12.0718 70.2998 10.6744 39.5066 42.3477Z" fill="#191919"/>
<path d="M39.5066 42.3477L44.4748 37.4829C47.9423 34.4812 52.6001 30.4961 56.2746 27.7013C87.2751 4.61929 137.424 11.5025 182.243 48.9203C182.243 48.9203 182.243 48.9203 182.191 48.9723C129.04 12.0718 70.2998 10.6744 39.5066 42.3477Z" fill="#191919"/>
<path d="M39.5083 42.3487L44.4766 37.4838C47.9442 34.4821 52.602 30.497 56.2767 27.7025C87.277 4.62039 137.426 11.5036 182.244 48.9215C182.244 48.9215 182.244 48.9215 182.193 48.9733C129.042 12.0729 70.3018 10.6755 39.5083 42.3487ZM38.9907 42.8663C69.7842 10.8308 129.042 12.0729 182.555 49.2321C137.944 11.5553 87.8979 4.41338 56.8976 27.2368C53.1196 30.2385 48.1511 34.2236 44.5284 37.4322L38.9907 42.8663Z" fill="#191919"/>
<path d="M39.5083 42.3487L44.4766 37.4838C47.9442 34.4821 52.602 30.497 56.2767 27.7025C87.277 4.62039 137.426 11.5036 182.244 48.9215C182.244 48.9215 182.244 48.9215 182.193 48.9733C129.042 12.0729 70.3018 10.6755 39.5083 42.3487ZM38.9907 42.8663C69.7842 10.8308 129.042 12.0729 182.555 49.2321C137.944 11.5553 87.8979 4.41338 56.8976 27.2368C53.1196 30.2385 48.1511 34.2236 44.5284 37.4322L38.9907 42.8663Z" fill="#191919"/>
<path d="M15.9065 75.004C18.3906 70.6048 21.8065 64.8084 24.5494 60.5646L28.586 54.9751C57.827 16.5741 122.933 13.003 182.191 48.972C182.191 48.972 182.191 48.9718 182.191 49.0236C114.652 15.3319 40.9035 27.0283 15.9065 75.004Z" fill="#191919"/>
<path d="M15.9065 75.004C18.3906 70.6048 21.8065 64.8084 24.5494 60.5646L28.586 54.9751C57.827 16.5741 122.933 13.003 182.191 48.972C182.191 48.972 182.191 48.9718 182.191 49.0236C114.652 15.3319 40.9035 27.0283 15.9065 75.004Z" fill="#191919"/>
<path d="M15.9062 75.0036C18.3904 70.6047 21.8061 64.808 24.549 60.5643L28.586 54.975C57.8267 16.5737 122.933 13.0027 182.191 48.9716C182.191 48.9716 182.191 48.9716 182.191 49.0233C114.652 15.3316 40.9033 27.028 15.9062 75.0036ZM15.5957 75.7281C40.3858 27.2868 114.704 15.3834 182.553 49.2304C123.502 12.951 58.4477 16.1597 29.0515 54.4055L24.6009 60.5643C21.7544 65.0668 18.0799 71.0703 15.5957 75.7281Z" fill="#191919"/>
<path d="M15.9062 75.0036C18.3904 70.6047 21.8061 64.808 24.549 60.5643L28.586 54.975C57.8267 16.5737 122.933 13.0027 182.191 48.9716C182.191 48.9716 182.191 48.9716 182.191 49.0233C114.652 15.3316 40.9033 27.028 15.9062 75.0036ZM15.5957 75.7281C40.3858 27.2868 114.704 15.3834 182.553 49.2304C123.502 12.951 58.4477 16.1597 29.0515 54.4055L24.6009 60.5643C21.7544 65.0668 18.0799 71.0703 15.5957 75.7281Z" fill="#191919"/>
<path d="M2.76294 112.732L3.90152 107.505C5.29888 102.382 7.26553 95.602 9.02515 90.6334C9.80145 88.5117 10.733 86.4416 11.7163 84.3715C35.73 34.7914 111.963 19.0582 182.141 49.0236C182.141 49.0236 182.141 49.0236 182.141 49.0753C110.255 25.1134 32.6246 45.763 8.61112 95.2913C5.86817 100.984 3.90152 106.832 2.76294 112.732Z" fill="#191919"/>
<path d="M2.76294 112.732L3.90152 107.505C5.29888 102.382 7.26553 95.602 9.02515 90.6334C9.80145 88.5117 10.733 86.4416 11.7163 84.3715C35.73 34.7914 111.963 19.0582 182.141 49.0236C182.141 49.0236 182.141 49.0236 182.141 49.0753C110.255 25.1134 32.6246 45.763 8.61112 95.2913C5.86817 100.984 3.90152 106.832 2.76294 112.732Z" fill="#191919"/>
<path d="M2.76073 112.734L3.89932 107.507C5.29666 102.384 7.2633 95.6037 9.02292 90.6355C9.79924 88.5135 10.7308 86.4434 11.7141 84.3732C35.7277 34.7934 111.961 19.0601 182.139 49.0255C182.139 49.0255 182.139 49.0255 182.139 49.0774C110.253 25.1155 32.6227 45.7651 8.6089 95.2933C5.86596 100.986 3.89932 106.834 2.76073 112.734ZM2.65723 113.459C3.79581 107.456 5.76244 101.452 8.55714 95.6558C32.6227 46.0238 110.512 25.2189 182.553 49.2326C112.323 18.8015 35.8832 34.3276 11.8176 83.9592C10.8861 85.9261 10.0063 87.8926 9.2817 89.8591C7.52208 95.1381 5.29666 102.177 3.89932 107.507L2.65723 113.459Z" fill="#191919"/>
<path d="M2.76073 112.734L3.89932 107.507C5.29666 102.384 7.2633 95.6037 9.02292 90.6355C9.79924 88.5135 10.7308 86.4434 11.7141 84.3732C35.7277 34.7934 111.961 19.0601 182.139 49.0255C182.139 49.0255 182.139 49.0255 182.139 49.0774C110.253 25.1155 32.6227 45.7651 8.6089 95.2933C5.86596 100.986 3.89932 106.834 2.76073 112.734ZM2.65723 113.459C3.79581 107.456 5.76244 101.452 8.55714 95.6558C32.6227 46.0238 110.512 25.2189 182.553 49.2326C112.323 18.8015 35.8832 34.3276 11.8176 83.9592C10.8861 85.9261 10.0063 87.8926 9.2817 89.8591C7.52208 95.1381 5.29666 102.177 3.89932 107.507L2.65723 113.459Z" fill="#191919"/>
<path d="M0.639759 149.22C0.484498 145.286 0.22573 140.059 0.277483 136.126L0.639759 128.466C10.4729 56.477 104.147 28.8923 182.088 49.1278V49.1797C109.633 36.2412 31.5367 65.8443 7.523 115.373C2.03711 126.759 -0.188299 138.196 0.639759 149.22Z" fill="#191919"/>
<path d="M0.639759 149.22C0.484498 145.286 0.22573 140.059 0.277483 136.126L0.639759 128.466C10.4729 56.477 104.147 28.8923 182.088 49.1278V49.1797C109.633 36.2412 31.5367 65.8443 7.523 115.373C2.03711 126.759 -0.188299 138.196 0.639759 149.22Z" fill="#191919"/>
<path d="M0.639759 149.219C0.484498 145.286 0.22573 140.058 0.277483 136.125L0.639759 128.465C10.4729 56.4762 104.147 28.8915 182.088 49.127V49.1791C109.633 36.2404 31.5367 65.8435 7.523 115.372C2.03711 126.758 -0.188299 138.195 0.639759 149.219ZM0.691514 149.891C-0.136545 138.764 2.03711 127.223 7.57475 115.734C31.6403 66.1023 109.995 36.344 182.553 49.2307C82.3069 24.9066 6.2809 71.0706 0.691514 127.741L0.277483 136.125C0.329237 140.265 0.38099 145.751 0.691514 149.891Z" fill="#191919"/>
<path d="M0.639759 149.219C0.484498 145.286 0.22573 140.058 0.277483 136.125L0.639759 128.465C10.4729 56.4762 104.147 28.8915 182.088 49.127V49.1791C109.633 36.2404 31.5367 65.8435 7.523 115.372C2.03711 126.758 -0.188299 138.195 0.639759 149.219ZM0.691514 149.891C-0.136545 138.764 2.03711 127.223 7.57475 115.734C31.6403 66.1023 109.995 36.344 182.553 49.2307C82.3069 24.9066 6.2809 71.0706 0.691514 127.741L0.277483 136.125C0.329237 140.265 0.38099 145.751 0.691514 149.891Z" fill="#191919"/>
<path d="M6.80004 181.153C5.35094 175.875 3.53956 168.783 2.40099 163.454C0.175578 151.033 2.09047 137.68 8.66318 124.121C32.677 74.5407 110.256 41.0562 182.141 49.1815V49.2333C111.963 47.8878 35.7303 86.8581 11.7167 136.386C3.90185 152.533 2.55624 167.801 6.80004 181.153Z" fill="#191919"/>
<path d="M6.80004 181.153C5.35094 175.875 3.53956 168.783 2.40099 163.454C0.175578 151.033 2.09047 137.68 8.66318 124.121C32.677 74.5407 110.256 41.0562 182.141 49.1815V49.2333C111.963 47.8878 35.7303 86.8581 11.7167 136.386C3.90185 152.533 2.55624 167.801 6.80004 181.153Z" fill="#191919"/>
<path d="M6.79934 181.152C5.35024 175.872 3.53885 168.782 2.40027 163.452C0.174867 151.031 2.08975 137.678 8.66246 124.119C32.6761 74.5391 110.255 41.0546 182.141 49.1799V49.2315C111.963 47.8859 35.7297 86.8565 11.7159 136.385C3.90112 152.532 2.55554 167.799 6.79934 181.152ZM6.95459 181.721C-10.2276 113.199 91.313 49.0247 182.555 49.2315C110.565 40.7439 32.6244 74.0732 8.55896 123.705C2.03799 137.161 0.174868 150.462 2.29677 162.831C3.48709 168.523 5.35023 176.08 6.95459 181.721Z" fill="#191919"/>
<path d="M6.79934 181.152C5.35024 175.872 3.53885 168.782 2.40027 163.452C0.174867 151.031 2.08975 137.678 8.66246 124.119C32.6761 74.5391 110.255 41.0546 182.141 49.1799V49.2315C111.963 47.8859 35.7297 86.8565 11.7159 136.385C3.90112 152.532 2.55554 167.799 6.79934 181.152ZM6.95459 181.721C-10.2276 113.199 91.313 49.0247 182.555 49.2315C110.565 40.7439 32.6244 74.0732 8.55896 123.705C2.03799 137.161 0.174868 150.462 2.29677 162.831C3.48709 168.523 5.35023 176.08 6.95459 181.721Z" fill="#191919"/>
<path d="M18.133 207.236L17.098 205.424C15.1831 201.646 12.6989 196.627 10.991 192.744C5.4534 179.391 6.33321 163.194 14.9761 145.39C38.9899 95.8613 113.774 52.9058 182.089 49.2832V49.3348C117.189 59.7373 45.1486 108.179 21.1348 157.707C11.5086 177.581 11.0428 194.607 18.133 207.236Z" fill="#191919"/>
<path d="M18.133 207.236L17.098 205.424C15.1831 201.646 12.6989 196.627 10.991 192.744C5.4534 179.391 6.33321 163.194 14.9761 145.39C38.9899 95.8613 113.774 52.9058 182.089 49.2832V49.3348C117.189 59.7373 45.1486 108.179 21.1348 157.707C11.5086 177.581 11.0428 194.607 18.133 207.236Z" fill="#191919"/>
<path d="M18.133 207.236L17.098 205.424C15.1831 201.646 12.6989 196.625 10.991 192.744C5.4534 179.391 6.33321 163.192 14.9761 145.389C38.9899 95.8611 113.774 52.9056 182.089 49.2827V49.3346C117.189 59.7369 45.1486 108.178 21.1348 157.707C11.5086 177.581 11.0428 194.607 18.133 207.236ZM18.3918 207.65C11.2498 195.073 11.7156 178.046 21.3418 158.121C45.407 108.489 117.603 59.7369 182.555 49.2309C72.3191 57.5114 -10.3315 139.438 10.8358 192.226C12.6472 196.211 15.1313 201.491 17.1497 205.424L18.3918 207.65Z" fill="#191919"/>
<path d="M18.133 207.236L17.098 205.424C15.1831 201.646 12.6989 196.625 10.991 192.744C5.4534 179.391 6.33321 163.192 14.9761 145.389C38.9899 95.8611 113.774 52.9056 182.089 49.2827V49.3346C117.189 59.7369 45.1486 108.178 21.1348 157.707C11.5086 177.581 11.0428 194.607 18.133 207.236ZM18.3918 207.65C11.2498 195.073 11.7156 178.046 21.3418 158.121C45.407 108.489 117.603 59.7369 182.555 49.2309C72.3191 57.5114 -10.3315 139.438 10.8358 192.226C12.6472 196.211 15.1313 201.491 17.1497 205.424L18.3918 207.65Z" fill="#191919"/>
<path d="M32.3651 227.834L27.7073 221.933L23.7739 216.395C-5.05283 164.332 93.5895 72.3137 182.193 49.3352C182.193 49.3352 182.193 49.3868 182.244 49.3868C84.6363 89.7545 5.29789 194.814 32.3651 227.834Z" fill="#191919"/>
<path d="M32.3651 227.834L27.7073 221.933L23.7739 216.395C-5.05283 164.332 93.5895 72.3137 182.193 49.3352C182.193 49.3352 182.193 49.3868 182.244 49.3868C84.6363 89.7545 5.29789 194.814 32.3651 227.834Z" fill="#191919"/>
<path d="M32.3633 227.833L27.7056 221.933L23.7723 216.395C-5.05447 164.332 93.588 72.313 182.189 49.3346C182.189 49.3346 182.189 49.3863 182.243 49.3863C84.6347 89.754 5.29625 194.814 32.3633 227.833ZM32.6738 228.144C4.26117 186.119 101.196 81.0078 182.553 49.2309C120.345 64.1878 50.4254 116.562 26.3598 166.194C16.1646 187.205 15.8022 204.389 23.5653 216.033L27.7575 221.933L32.6738 228.144Z" fill="#191919"/>
<path d="M32.3633 227.833L27.7056 221.933L23.7723 216.395C-5.05447 164.332 93.588 72.313 182.189 49.3346C182.189 49.3346 182.189 49.3863 182.243 49.3863C84.6347 89.754 5.29625 194.814 32.3633 227.833ZM32.6738 228.144C4.26117 186.119 101.196 81.0078 182.553 49.2309C120.345 64.1878 50.4254 116.562 26.3598 166.194C16.1646 187.205 15.8022 204.389 23.5653 216.033L27.7575 221.933L32.6738 228.144Z" fill="#191919"/>
<path d="M48.6151 244.291L43.8021 239.996L38.9373 235.182C31.1741 227.006 32.0538 210.548 43.3364 187.207C67.35 137.679 129.454 76.0405 182.191 49.3872C136.182 82.3543 79.4602 149.065 55.4466 198.594C43.6985 222.814 41.939 238.494 48.6151 244.291Z" fill="#191919"/>
<path d="M48.6151 244.291L43.8021 239.996L38.9373 235.182C31.1741 227.006 32.0538 210.548 43.3364 187.207C67.35 137.679 129.454 76.0405 182.191 49.3872C136.182 82.3543 79.4602 149.065 55.4466 198.594C43.6985 222.814 41.939 238.494 48.6151 244.291Z" fill="#191919"/>
<path d="M48.6153 244.29L43.8023 239.996L38.9375 235.182C31.1743 227.004 32.0543 210.546 43.3365 187.205C67.3502 137.678 129.454 76.0392 182.191 49.3863C136.182 82.3532 79.4604 149.064 55.4467 198.592C43.6988 222.813 41.9392 238.494 48.6153 244.29ZM48.926 244.6C42.3013 238.857 44.0609 223.226 55.8607 198.954C79.9264 149.322 136.648 82.3015 182.605 49.2309C129.61 75.6252 67.1433 137.212 43.0777 186.843C31.7955 210.133 30.9674 226.642 38.7303 234.872L43.9057 239.996L48.926 244.6Z" fill="#191919"/>
<path d="M48.6153 244.29L43.8023 239.996L38.9375 235.182C31.1743 227.004 32.0543 210.546 43.3365 187.205C67.3502 137.678 129.454 76.0392 182.191 49.3863C136.182 82.3532 79.4604 149.064 55.4467 198.592C43.6988 222.813 41.9392 238.494 48.6153 244.29ZM48.926 244.6C42.3013 238.857 44.0609 223.226 55.8607 198.954C79.9264 149.322 136.648 82.3015 182.605 49.2309C129.61 75.6252 67.1433 137.212 43.0777 186.843C31.7955 210.133 30.9674 226.642 38.7303 234.872L43.9057 239.996L48.926 244.6Z" fill="#191919"/>
<path d="M65.4871 256.766C62.7961 255.006 59.225 252.624 56.5854 250.709L55.6541 249.985C50.1681 245.845 52.7557 230.887 64.7626 206.098C88.7762 156.569 141.358 86.4947 182.295 49.4393C182.295 49.4393 182.346 49.4393 182.346 49.4909C148.914 91.7218 102.439 165.937 78.4256 215.465C66.2635 240.669 62.1748 254.592 65.4871 256.766Z" fill="#191919"/>
<path d="M65.4871 256.766C62.7961 255.006 59.225 252.624 56.5854 250.709L55.6541 249.985C50.1681 245.845 52.7557 230.887 64.7626 206.098C88.7762 156.569 141.358 86.4947 182.295 49.4393C182.295 49.4393 182.346 49.4393 182.346 49.4909C148.914 91.7218 102.439 165.937 78.4256 215.465C66.2635 240.669 62.1748 254.592 65.4871 256.766Z" fill="#191919"/>
<path d="M65.4874 256.761C62.7964 255.004 59.2255 252.621 56.5859 250.709L55.6544 249.983C50.1686 245.843 52.756 230.886 64.7629 206.096C88.7765 156.568 141.358 86.4934 182.296 49.4378C182.296 49.4378 182.348 49.4378 182.348 49.4895C148.914 91.7204 102.44 165.935 78.4261 215.464C66.2638 240.667 62.1753 254.59 65.4874 256.761ZM65.7981 256.918C62.5376 254.849 66.6778 240.926 78.8917 215.723C102.957 166.09 149.38 91.5135 182.555 49.179C141.358 86.0276 88.4144 156.154 64.3489 205.786C52.342 230.523 49.8062 245.533 55.3437 249.776L56.5859 250.709C59.3807 252.621 63.0033 255.159 65.7981 256.918Z" fill="#191919"/>
<path d="M65.4874 256.761C62.7964 255.004 59.2255 252.621 56.5859 250.709L55.6544 249.983C50.1686 245.843 52.756 230.886 64.7629 206.096C88.7765 156.568 141.358 86.4934 182.296 49.4378C182.296 49.4378 182.348 49.4378 182.348 49.4895C148.914 91.7204 102.44 165.935 78.4261 215.464C66.2638 240.667 62.1753 254.59 65.4874 256.761ZM65.7981 256.918C62.5376 254.849 66.6778 240.926 78.8917 215.723C102.957 166.09 149.38 91.5135 182.555 49.179C141.358 86.0276 88.4144 156.154 64.3489 205.786C52.342 230.523 49.8062 245.533 55.3437 249.776L56.5859 250.709C59.3807 252.621 63.0033 255.159 65.7981 256.918Z" fill="#191919"/>
<path d="M82.9279 265.977C79.8226 264.527 75.734 262.561 72.6806 260.956C71.1798 260.077 76.4068 246.828 88.6725 221.469C112.686 171.94 154.607 95.0343 182.346 49.4913H182.398C162.731 99.0194 127.384 179.134 103.371 228.663C91.1051 254.073 84.17 266.494 82.9279 265.977Z" fill="#191919"/>
<path d="M82.9279 265.977C79.8226 264.527 75.734 262.561 72.6806 260.956C71.1798 260.077 76.4068 246.828 88.6725 221.469C112.686 171.94 154.607 95.0343 182.346 49.4913H182.398C162.731 99.0194 127.384 179.134 103.371 228.663C91.1051 254.073 84.17 266.494 82.9279 265.977Z" fill="#191919"/>
<path d="M82.9282 265.975C79.8232 264.527 75.7347 262.56 72.6812 260.956C71.1804 260.075 76.4075 246.828 88.673 221.468C112.687 171.939 154.607 95.0329 182.348 49.4898H182.399C162.733 99.018 127.385 179.132 103.371 228.661C91.1054 254.071 84.1705 266.493 82.9282 265.975ZM83.2906 266.132C84.5847 266.701 91.623 254.28 103.94 228.92C128.006 179.288 163.198 98.8628 182.606 49.2309C154.555 94.5674 112.324 171.577 88.2589 221.209C75.9935 246.569 70.818 259.867 72.4224 260.748C75.5793 262.353 79.8232 264.527 83.0318 265.975L83.2906 266.132Z" fill="#191919"/>
<path d="M82.9282 265.975C79.8232 264.527 75.7347 262.56 72.6812 260.956C71.1804 260.075 76.4075 246.828 88.673 221.468C112.687 171.939 154.607 95.0329 182.348 49.4898H182.399C162.733 99.018 127.385 179.132 103.371 228.661C91.1054 254.071 84.1705 266.493 82.9282 265.975ZM83.2906 266.132C84.5847 266.701 91.623 254.28 103.94 228.92C128.006 179.288 163.198 98.8628 182.606 49.2309C154.555 94.5674 112.324 171.577 88.2589 221.209C75.9935 246.569 70.818 259.867 72.4224 260.748C75.5793 262.353 79.8232 264.527 83.0318 265.975L83.2906 266.132Z" fill="#191919"/>
<path d="M101.456 272.6L97.0054 271.257L90.4844 269.029C93.7968 270.22 101.974 258.266 114.239 233.061C138.305 183.586 168.788 101.504 182.503 49.5434H182.555C177.275 104.247 153.572 188.554 129.558 238.082C117.5 262.923 107.667 274.309 101.456 272.6Z" fill="#191919"/>
<path d="M101.456 272.6L97.0054 271.257L90.4844 269.029C93.7968 270.22 101.974 258.266 114.239 233.061C138.305 183.586 168.788 101.504 182.503 49.5434H182.555C177.275 104.247 153.572 188.554 129.558 238.082C117.5 262.923 107.667 274.309 101.456 272.6Z" fill="#191919"/>
<path d="M101.457 272.598L97.0056 271.253L90.4848 269.028C93.7971 270.219 101.974 258.265 114.24 233.06C138.305 183.583 168.788 101.502 182.503 49.5414H182.555C177.275 104.245 153.572 188.552 129.559 238.079C117.5 262.92 107.667 274.309 101.457 272.598ZM101.819 272.703C108.081 274.412 117.966 263.024 130.025 238.184C154.09 188.552 177.586 103.934 182.555 49.179C168.633 100.984 137.839 183.221 113.774 232.853C101.56 258.056 93.383 270.013 90.1743 268.874L97.0056 271.253L101.819 272.703Z" fill="#191919"/>
<path d="M101.457 272.598L97.0056 271.253L90.4848 269.028C93.7971 270.219 101.974 258.265 114.24 233.06C138.305 183.583 168.788 101.502 182.503 49.5414H182.555C177.275 104.245 153.572 188.552 129.559 238.079C117.5 262.92 107.667 274.309 101.457 272.598ZM101.819 272.703C108.081 274.412 117.966 263.024 130.025 238.184C154.09 188.552 177.586 103.934 182.555 49.179C168.633 100.984 137.839 183.221 113.774 232.853C101.56 258.056 93.383 270.013 90.1743 268.874L97.0056 271.253L101.819 272.703Z" fill="#191919"/>
<path d="M121.743 276.691C118.793 276.224 114.912 275.655 112.014 275.138L109.685 274.672C117.81 276.379 128.73 265.303 140.582 240.825C164.595 191.297 183.382 105.748 182.553 49.5434H182.605C191.869 107.197 179.915 193.885 155.901 243.414C144.463 267.063 132.353 277.985 121.743 276.691Z" fill="#191919"/>
<path d="M121.743 276.691C118.793 276.224 114.912 275.655 112.014 275.138L109.685 274.672C117.81 276.379 128.73 265.303 140.582 240.825C164.595 191.297 183.382 105.748 182.553 49.5434H182.605C191.869 107.197 179.915 193.885 155.901 243.414C144.463 267.063 132.353 277.985 121.743 276.691Z" fill="#191919"/>
<path d="M121.743 276.69C118.793 276.223 114.912 275.654 112.013 275.136L109.684 274.671C117.81 276.378 128.73 265.301 140.582 240.824C164.595 191.295 183.382 105.746 182.553 49.5415H182.605C191.869 107.195 179.915 193.882 155.901 243.412C144.463 267.062 132.353 277.983 121.743 276.69ZM122.157 276.74C132.818 277.983 144.981 267.115 156.47 243.514C180.536 193.882 192.231 106.884 182.605 49.2309C183.227 105.384 164.233 191.088 140.168 240.719C128.316 265.198 117.448 276.326 109.374 274.567L112.065 275.136C115.015 275.654 119.052 276.378 122.157 276.74Z" fill="#191919"/>
<path d="M121.743 276.69C118.793 276.223 114.912 275.654 112.013 275.136L109.684 274.671C117.81 276.378 128.73 265.301 140.582 240.824C164.595 191.295 183.382 105.746 182.553 49.5415H182.605C191.869 107.195 179.915 193.882 155.901 243.412C144.463 267.062 132.353 277.983 121.743 276.69ZM122.157 276.74C132.818 277.983 144.981 267.115 156.47 243.514C180.536 193.882 192.231 106.884 182.605 49.2309C183.227 105.384 164.233 191.088 140.168 240.719C128.316 265.198 117.448 276.326 109.374 274.567L112.065 275.136C115.015 275.654 119.052 276.378 122.157 276.74Z" fill="#191919"/>
<path d="M144.36 277.721C140.323 277.775 134.889 277.721 130.852 277.566C142.911 278.24 155.746 267.422 166.821 244.497C190.835 194.968 197.873 107.815 182.607 49.5923H182.658C206.103 107.919 205.687 195.123 181.674 244.652C171.22 266.284 157.971 277.152 144.36 277.721Z" fill="#191919"/>
<path d="M144.36 277.721C140.323 277.775 134.889 277.721 130.852 277.566C142.911 278.24 155.746 267.422 166.821 244.497C190.835 194.968 197.873 107.815 182.607 49.5923H182.658C206.103 107.919 205.687 195.123 181.674 244.652C171.22 266.284 157.971 277.152 144.36 277.721Z" fill="#191919"/>
<path d="M144.36 277.723C140.324 277.774 134.889 277.723 130.853 277.569C142.911 278.242 155.746 267.425 166.821 244.497C190.835 194.97 197.873 107.816 182.607 49.5932H182.658C206.103 107.92 205.689 195.125 181.675 244.653C171.22 266.287 157.972 277.154 144.36 277.723ZM144.826 277.673C197.718 270.841 218.886 142.75 182.607 49.2309C197.718 107.402 190.473 194.814 166.407 244.445C155.28 267.425 142.497 278.242 130.49 277.516C134.734 277.673 140.53 277.983 144.826 277.673Z" fill="#191919"/>
<path d="M144.36 277.723C140.324 277.774 134.889 277.723 130.853 277.569C142.911 278.242 155.746 267.425 166.821 244.497C190.835 194.97 197.873 107.816 182.607 49.5932H182.658C206.103 107.92 205.689 195.125 181.675 244.653C171.22 266.287 157.972 277.154 144.36 277.723ZM144.826 277.673C197.718 270.841 218.886 142.75 182.607 49.2309C197.718 107.402 190.473 194.814 166.407 244.445C155.28 267.425 142.497 278.242 130.49 277.516C134.734 277.673 140.53 277.983 144.826 277.673Z" fill="#191919"/>
<path d="M170.34 274.257L165.528 275.293C162.319 275.812 158.126 276.536 154.917 276.95C169.045 275.293 182.244 264.373 192.18 243.931C216.193 194.402 211.95 107.508 182.762 49.6475H182.813C219.714 106.214 230.116 192.073 206.103 241.601C197.097 260.078 184.52 270.946 170.34 274.257Z" fill="#191919"/>
<path d="M170.34 274.257L165.528 275.293C162.319 275.812 158.126 276.536 154.917 276.95C169.045 275.293 182.244 264.373 192.18 243.931C216.193 194.402 211.95 107.508 182.762 49.6475H182.813C219.714 106.214 230.116 192.073 206.103 241.601C197.097 260.078 184.52 270.946 170.34 274.257Z" fill="#191919"/>
<path d="M170.34 274.257L165.526 275.29C162.319 275.809 158.126 276.533 154.918 276.947C169.047 275.29 182.243 264.37 192.18 243.928C216.195 194.401 211.95 107.506 182.762 49.6451H182.813C219.714 106.212 230.116 192.071 206.103 241.598C197.097 260.075 184.521 270.943 170.34 274.257ZM170.858 274.102C184.986 270.736 197.563 259.92 206.517 241.393C230.582 191.761 219.869 105.746 182.555 49.2309C211.639 107.143 215.728 194.297 191.662 243.928C181.726 264.424 168.528 275.342 154.4 276.947C157.712 276.481 162.216 275.862 165.526 275.24L170.858 274.102Z" fill="#191919"/>
<path d="M170.34 274.257L165.526 275.29C162.319 275.809 158.126 276.533 154.918 276.947C169.047 275.29 182.243 264.37 192.18 243.928C216.195 194.401 211.95 107.506 182.762 49.6451H182.813C219.714 106.212 230.116 192.071 206.103 241.598C197.097 260.075 184.521 270.943 170.34 274.257ZM170.858 274.102C184.986 270.736 197.563 259.92 206.517 241.393C230.582 191.761 219.869 105.746 182.555 49.2309C211.639 107.143 215.728 194.297 191.662 243.928C181.726 264.424 168.528 275.342 154.4 276.947C157.712 276.481 162.216 275.862 165.526 275.24L170.858 274.102Z" fill="#191919"/>
<path d="M199.632 263.856C195.906 265.511 190.99 267.736 187.212 269.184L182.243 270.945C195.75 266.494 207.446 255.833 215.676 238.858C239.689 189.329 224.992 104.661 182.863 49.5434H182.915C231.927 101.866 252.212 184.31 228.2 233.837C221.212 248.122 211.329 258.111 199.632 263.856Z" fill="#191919"/>
<path d="M199.632 263.856C195.906 265.511 190.99 267.736 187.212 269.184L182.243 270.945C195.75 266.494 207.446 255.833 215.676 238.858C239.689 189.329 224.992 104.661 182.863 49.5434H182.915C231.927 101.866 252.212 184.31 228.2 233.837C221.212 248.122 211.329 258.111 199.632 263.856Z" fill="#191919"/>
<path d="M199.635 263.853C195.909 265.51 190.991 267.734 187.214 269.184L182.246 270.945C195.754 266.493 207.449 255.833 215.679 238.857C239.692 189.328 224.993 104.66 182.867 49.5418H182.919C231.93 101.865 252.216 184.309 228.204 233.836C221.216 248.121 211.332 258.109 199.635 263.853ZM200.204 263.594C211.849 257.849 221.631 247.861 228.514 233.681C252.579 184.05 231.982 101.503 182.556 49.2832C241.867 131.675 241.401 247.811 181.677 271.15L187.214 269.236C191.147 267.579 196.374 265.458 200.204 263.594Z" fill="#191919"/>
<path d="M199.635 263.853C195.909 265.51 190.991 267.734 187.214 269.184L182.246 270.945C195.754 266.493 207.449 255.833 215.679 238.857C239.692 189.328 224.993 104.66 182.867 49.5418H182.919C231.93 101.865 252.216 184.309 228.204 233.836C221.216 248.121 211.332 258.109 199.635 263.853ZM200.204 263.594C211.849 257.849 221.631 247.861 228.514 233.681C252.579 184.05 231.982 101.503 182.556 49.2832C241.867 131.675 241.401 247.811 181.677 271.15L187.214 269.236C191.147 267.579 196.374 265.458 200.204 263.594Z" fill="#191919"/>
<path d="M229.961 243.878C218.679 252.882 218.679 252.882 212.365 256.869C222.302 250.657 230.582 241.498 236.482 229.284C260.497 179.755 236.482 99.382 182.865 49.5434C182.865 49.5434 182.865 49.5434 182.917 49.5434C242.175 95.19 270.743 172.199 246.676 221.78C242.434 230.63 236.741 237.979 229.961 243.878Z" fill="#191919"/>
<path d="M229.961 243.878C218.679 252.882 218.679 252.882 212.365 256.869C222.302 250.657 230.582 241.498 236.482 229.284C260.497 179.755 236.482 99.382 182.865 49.5434C182.865 49.5434 182.865 49.5434 182.917 49.5434C242.175 95.19 270.743 172.199 246.676 221.78C242.434 230.63 236.741 237.979 229.961 243.878Z" fill="#191919"/>
<path d="M229.959 243.876C218.677 252.88 218.677 252.88 212.363 256.865C222.3 250.656 230.58 241.496 236.48 229.282C260.494 179.753 236.48 99.3804 182.863 49.5415C182.863 49.5415 182.863 49.5415 182.915 49.5415C242.174 95.1883 270.742 172.198 246.676 221.778C242.432 230.627 236.739 237.977 229.959 243.876ZM230.476 243.412C237.153 237.562 242.744 230.265 246.986 221.519C271.053 171.887 242.224 94.7741 182.553 49.2309C236.222 99.1732 260.185 179.857 236.118 229.489C230.166 241.807 221.783 251.018 211.743 257.228C223.024 249.673 224.216 248.895 230.476 243.412Z" fill="#191919"/>
<path d="M229.959 243.876C218.677 252.88 218.677 252.88 212.363 256.865C222.3 250.656 230.58 241.496 236.48 229.282C260.494 179.753 236.48 99.3804 182.863 49.5415C182.863 49.5415 182.863 49.5415 182.915 49.5415C242.174 95.1883 270.742 172.198 246.676 221.778C242.432 230.627 236.739 237.977 229.959 243.876ZM230.476 243.412C237.153 237.562 242.744 230.265 246.986 221.519C271.053 171.887 242.224 94.7741 182.553 49.2309C236.222 99.1732 260.185 179.857 236.118 229.489C230.166 241.807 221.783 251.018 211.743 257.228C223.024 249.673 224.216 248.895 230.476 243.412Z" fill="#191919"/>
<path d="M255.889 213.809L253.406 217.586C250.04 222.14 245.383 228.092 241.71 232.387C246.109 227.523 249.885 221.933 252.938 215.672C276.953 166.144 245.641 91.8252 182.969 49.4391C182.969 49.4391 182.969 49.4388 182.969 49.3872C249.524 86.6498 284.042 156.828 260.029 206.356C258.787 208.996 257.39 211.479 255.889 213.809Z" fill="#191919"/>
<path d="M255.889 213.809L253.406 217.586C250.04 222.14 245.383 228.092 241.71 232.387C246.109 227.523 249.885 221.933 252.938 215.672C276.953 166.144 245.641 91.8252 182.969 49.4391C182.969 49.4391 182.969 49.4388 182.969 49.3872C249.524 86.6498 284.042 156.828 260.029 206.356C258.787 208.996 257.39 211.479 255.889 213.809Z" fill="#191919"/>
<path d="M255.888 213.807L253.404 217.586C250.038 222.14 245.381 228.092 241.708 232.387C246.107 227.522 249.886 221.933 252.937 215.671C276.952 166.142 245.64 91.8243 182.967 49.4379C182.967 49.4379 182.967 49.4379 182.967 49.3863C249.522 86.649 284.043 156.827 260.03 206.355C258.785 208.995 257.388 211.479 255.888 213.807ZM256.302 213.186C257.699 210.962 259.044 208.581 260.235 206.148C284.302 156.516 249.522 86.2865 182.605 49.2309C245.381 91.6689 276.745 166.349 252.679 215.981C249.574 222.347 245.693 228.04 241.189 232.956C245.02 228.454 249.936 222.347 253.404 217.586L256.302 213.186Z" fill="#191919"/>
<path d="M255.888 213.807L253.404 217.586C250.038 222.14 245.381 228.092 241.708 232.387C246.107 227.522 249.886 221.933 252.937 215.671C276.952 166.142 245.64 91.8243 182.967 49.4379C182.967 49.4379 182.967 49.4379 182.967 49.3863C249.522 86.649 284.043 156.827 260.03 206.355C258.785 208.995 257.388 211.479 255.888 213.807ZM256.302 213.186C257.699 210.962 259.044 208.581 260.235 206.148C284.302 156.516 249.522 86.2865 182.605 49.2309C245.381 91.6689 276.745 166.349 252.679 215.981C249.574 222.347 245.693 228.04 241.189 232.956C245.02 228.454 249.936 222.347 253.404 217.586L256.302 213.186Z" fill="#191919"/>
<path d="M272.502 176.856C268.103 190.261 267.844 191.088 264.222 198.801C287.768 149.323 251.542 82.6131 182.969 49.4391C182.969 49.4391 182.969 49.4388 182.969 49.3872C248.438 74.6947 285.906 129.605 272.502 176.856Z" fill="#191919"/>
<path d="M272.502 176.856C268.103 190.261 267.844 191.088 264.222 198.801C287.768 149.323 251.542 82.6131 182.969 49.4391C182.969 49.4391 182.969 49.4388 182.969 49.3872C248.438 74.6947 285.906 129.605 272.502 176.856Z" fill="#191919"/>
<path d="M272.5 176.855C268.101 190.259 267.842 191.088 264.22 198.799C287.766 149.322 251.54 82.612 182.967 49.4379C182.967 49.4379 182.967 49.4379 182.967 49.3863C248.436 74.6938 285.904 129.604 272.5 176.855ZM272.708 176.131C286.268 114.027 232.599 68.9492 182.605 49.2309C251.488 82.612 287.873 149.84 263.908 199.472C268.618 188.552 270.793 183.583 272.708 176.131Z" fill="#191919"/>
<path d="M272.5 176.855C268.101 190.259 267.842 191.088 264.22 198.799C287.766 149.322 251.54 82.612 182.967 49.4379C182.967 49.4379 182.967 49.4379 182.967 49.3863C248.436 74.6938 285.904 129.604 272.5 176.855ZM272.708 176.131C286.268 114.027 232.599 68.9492 182.605 49.2309C251.488 82.612 287.873 149.84 263.908 199.472C268.618 188.552 270.793 183.583 272.708 176.131Z" fill="#191919"/>
<path d="M277.731 139.386L277.678 142.026C277.314 147.719 276.695 155.275 275.971 160.968C283.164 116.459 245.591 69.4154 182.969 49.3348C182.969 49.3348 182.969 49.3348 182.969 49.2832C241.088 62.6355 277.833 99.691 277.731 139.386Z" fill="#191919"/>
<path d="M277.731 139.386L277.678 142.026C277.314 147.719 276.695 155.275 275.971 160.968C283.164 116.459 245.591 69.4154 182.969 49.3348C182.969 49.3348 182.969 49.3348 182.969 49.2832C241.088 62.6355 277.833 99.691 277.731 139.386Z" fill="#191919"/>
<path d="M277.729 139.386L277.676 142.025C277.315 147.718 276.693 155.274 275.969 160.966C283.162 116.459 245.589 69.4148 182.967 49.3343C182.967 49.3343 182.967 49.3343 182.967 49.2826C241.086 62.6349 277.831 99.6905 277.729 139.386ZM277.729 138.713C273.9 74.5899 203.928 53.9922 182.553 49.179C245.589 69.3629 283.319 116.873 275.865 161.64C276.589 155.792 277.365 147.925 277.676 142.025L277.729 138.713Z" fill="#191919"/>
<path d="M277.729 139.386L277.676 142.025C277.315 147.718 276.693 155.274 275.969 160.966C283.162 116.459 245.589 69.4148 182.967 49.3343C182.967 49.3343 182.967 49.3343 182.967 49.2826C241.086 62.6349 277.831 99.6905 277.729 139.386ZM277.729 138.713C273.9 74.5899 203.928 53.9922 182.553 49.179C245.589 69.3629 283.319 116.873 275.865 161.64C276.589 155.792 277.365 147.925 277.676 142.025L277.729 138.713Z" fill="#191919"/>
<path d="M273.744 106.057L275.762 115.683L277.003 124.895C273.382 89.03 237.723 58.3399 183.02 49.3348V49.2832C232.756 52.8541 266.344 75.6773 273.744 106.057Z" fill="#191919"/>
<path d="M273.744 106.057L275.762 115.683L277.003 124.895C273.382 89.03 237.723 58.3399 183.02 49.3348V49.2832C232.756 52.8541 266.344 75.6773 273.744 106.057Z" fill="#191919"/>
<path d="M273.744 106.056L275.762 115.683L277.003 124.895C273.381 89.0295 237.723 58.3396 183.019 49.3346V49.2827C232.754 52.8537 266.344 75.6771 273.744 106.056ZM273.588 105.487C266.082 75.2112 232.392 52.5949 182.553 49.2309C237.672 58.3396 273.536 89.34 277.057 125.516L275.71 115.683C275.088 112.577 274.364 108.489 273.588 105.487Z" fill="#191919"/>
<path d="M273.744 106.056L275.762 115.683L277.003 124.895C273.381 89.0295 237.723 58.3396 183.019 49.3346V49.2827C232.754 52.8537 266.344 75.6771 273.744 106.056ZM273.588 105.487C266.082 75.2112 232.392 52.5949 182.553 49.2309C237.672 58.3396 273.536 89.34 277.057 125.516L275.71 115.683C275.088 112.577 274.364 108.489 273.588 105.487Z" fill="#191919"/>
<path d="M263.653 78.2136C265.568 82.4575 268 88.1504 269.655 92.4979L270.019 93.5328C257.804 64.6025 228.511 49.6975 182.969 49.2318V49.18C224.319 45.0915 253.302 56.8913 263.653 78.2136Z" fill="#191919"/>
<path d="M263.653 78.2136C265.568 82.4575 268 88.1504 269.655 92.4979L270.019 93.5328C257.804 64.6025 228.511 49.6975 182.969 49.2318V49.18C224.319 45.0915 253.302 56.8913 263.653 78.2136Z" fill="#191919"/>
<path d="M263.651 78.2126C265.566 82.4564 267.999 88.1493 269.655 92.4965L270.017 93.5317C257.802 64.6014 228.511 49.6962 182.967 49.2307V49.1786C224.319 45.0904 253.3 56.8903 263.651 78.2126ZM263.444 77.7468C253.043 56.4761 223.955 44.8832 182.553 49.2307C229.08 49.4374 261.115 67.4479 270.224 94.1009L269.655 92.4965C267.896 88.0459 265.513 82.094 263.444 77.7468Z" fill="#191919"/>
<path d="M263.651 78.2126C265.566 82.4564 267.999 88.1493 269.655 92.4965L270.017 93.5317C257.802 64.6014 228.511 49.6962 182.967 49.2307V49.1786C224.319 45.0904 253.3 56.8903 263.651 78.2126ZM263.444 77.7468C253.043 56.4761 223.955 44.8832 182.553 49.2307C229.08 49.4374 261.115 67.4479 270.224 94.1009L269.655 92.4965C267.896 88.0459 265.513 82.094 263.444 77.7468Z" fill="#191919"/>
<path d="M250.041 55.9083L250.247 56.2187C252.731 59.7897 255.992 64.6028 258.321 68.2773C247.712 50.3189 220.902 42.3489 182.967 49.1284C182.967 49.1284 182.967 49.0767 182.915 49.0767C216.193 38.933 239.792 42.2972 250.041 55.9083Z" fill="#191919"/>
<path d="M250.041 55.9083L250.247 56.2187C252.731 59.7897 255.992 64.6028 258.321 68.2773C247.712 50.3189 220.902 42.3489 182.967 49.1284C182.967 49.1284 182.967 49.0767 182.915 49.0767C216.193 38.933 239.792 42.2972 250.041 55.9083Z" fill="#191919"/>
<path d="M250.038 55.9087L250.247 56.2192C252.731 59.7901 255.992 64.6031 258.321 68.2778C247.712 50.3192 220.902 42.3492 182.967 49.1288C182.967 49.1288 182.967 49.0772 182.915 49.0772C216.193 38.9335 239.793 42.2975 250.038 55.9087ZM249.779 55.5983C239.586 42.0387 215.883 38.8299 182.605 49.2324C220.85 42.401 247.917 50.578 258.526 68.6918C256.095 64.914 252.835 59.8937 250.247 56.2192L249.779 55.5983Z" fill="#191919"/>
<path d="M250.038 55.9087L250.247 56.2192C252.731 59.7901 255.992 64.6031 258.321 68.2778C247.712 50.3192 220.902 42.3492 182.967 49.1288C182.967 49.1288 182.967 49.0772 182.915 49.0772C216.193 38.9335 239.793 42.2975 250.038 55.9087ZM249.779 55.5983C239.586 42.0387 215.883 38.8299 182.605 49.2324C220.85 42.401 247.917 50.578 258.526 68.6918C256.095 64.914 252.835 59.8937 250.247 56.2192L249.779 55.5983Z" fill="#191919"/>
<path d="M234.308 38.3121C237.206 41.2105 241.037 45.1437 243.78 48.1973C231.876 36.8113 213.658 37.0701 182.917 49.077C182.917 49.077 182.917 49.0253 182.865 49.0253C208.484 33.8098 226.338 30.808 234.308 38.3121Z" fill="#191919"/>
<path d="M234.308 38.3121C237.206 41.2105 241.037 45.1437 243.78 48.1973C231.876 36.8113 213.658 37.0701 182.917 49.077C182.917 49.077 182.917 49.0253 182.865 49.0253C208.484 33.8098 226.338 30.808 234.308 38.3121Z" fill="#191919"/>
<path d="M234.308 38.311C237.204 41.2091 241.036 45.1426 243.777 48.1959C231.875 36.8102 213.657 37.0691 182.915 49.0759C182.915 49.0759 182.915 49.0241 182.863 49.0241C208.482 33.8084 226.337 30.807 234.308 38.311ZM234.151 38.1558C226.181 30.6515 208.275 33.7568 182.553 49.1794C212.984 36.6549 234.566 37.3277 244.037 48.5066C241.139 45.3497 237.256 41.1576 234.151 38.1558Z" fill="#191919"/>
<path d="M234.308 38.311C237.204 41.2091 241.036 45.1426 243.777 48.1959C231.875 36.8102 213.657 37.0691 182.915 49.0759C182.915 49.0759 182.915 49.0241 182.863 49.0241C208.482 33.8084 226.337 30.807 234.308 38.311ZM234.151 38.1558C226.181 30.6515 208.275 33.7568 182.553 49.1794C212.984 36.6549 234.566 37.3277 244.037 48.5066C241.139 45.3497 237.256 41.1576 234.151 38.1558Z" fill="#191919"/>
</g>
</g>
</g>
<defs>
<clipPath id="clip0_1_2213">
<rect width="277.458" height="277.458" fill="white" transform="translate(0.270752 0.345764)"/>
</clipPath>
<clipPath id="clip1_1_2213">
<rect width="277.458" height="277.458" fill="white" transform="translate(0.270752 0.345764)"/>
</clipPath>
<clipPath id="clip2_1_2213">
<rect width="277.458" height="277.458" fill="white" transform="translate(0.270752 0.345764)"/>
</clipPath>
</defs>
</svg>
