<svg width="492" height="493" viewBox="0 0 492 493" fill="none" xmlns="http://www.w3.org/2000/svg">
<g clip-path="url(#clip0_1_2353)">
<path fill-rule="evenodd" clip-rule="evenodd" d="M30.7479 27.9379C60.1492 -0.997702 110.759 -3.79346 169.724 16.3856C193.925 24.6679 219.396 36.7829 245.156 52.4045C208.945 74.0084 172.197 102.299 137.518 136.429C102.84 170.558 73.9677 206.848 51.789 242.71C36.5806 216.703 24.8738 191.042 16.9789 166.711C-2.25647 107.432 1.34672 56.8736 30.7479 27.9379ZM50.278 245.168C-2.76506 155.049 -14.2225 68.622 28.961 26.1223C72.1444 -16.3776 158.377 -3.54193 247.639 50.9331C337.758 -2.10832 424.183 -13.565 466.682 29.618C509.181 72.801 496.347 159.032 441.873 248.294C494.915 338.411 506.371 424.837 463.189 467.336C420.005 509.835 333.774 497.001 244.514 442.528C154.394 495.571 67.9675 507.029 25.4679 463.845C-17.0317 420.662 -4.1964 334.429 50.278 245.168ZM242.054 441.017C216.048 456.226 190.387 467.933 166.057 475.827C106.778 495.063 56.2192 491.46 27.2836 462.058C-1.65205 432.656 -4.44782 382.047 15.7312 323.082C24.0134 298.882 36.1283 273.411 51.7494 247.651C73.3532 283.861 101.643 320.608 135.771 355.286C169.9 389.965 206.193 418.837 242.054 441.017ZM244.537 439.555C208.5 417.405 171.957 388.422 137.587 353.499C103.217 318.577 74.8227 281.577 53.2509 245.192C75.4002 209.155 104.383 172.614 139.305 138.243C174.228 103.874 211.229 75.4779 247.616 53.906C283.652 76.0554 320.192 105.037 354.562 139.959C388.933 174.883 417.327 211.884 438.9 248.27C416.751 284.307 387.768 320.85 352.845 355.219C317.922 389.589 280.923 417.984 244.537 439.555ZM246.997 441.056C272.756 456.677 298.226 468.791 322.426 477.073C381.39 497.251 431.999 494.456 461.402 465.521C490.802 436.585 494.406 386.026 475.171 326.747C467.275 302.418 455.569 276.758 440.362 250.753C418.183 286.614 389.31 322.906 354.632 357.035C319.954 391.164 283.207 419.452 246.997 441.056ZM440.401 245.811C456.022 220.051 468.137 194.58 476.418 170.381C496.597 111.416 493.802 60.8062 464.866 31.4049C435.93 2.00372 385.371 -1.59946 326.093 17.6359C301.763 25.5305 276.104 37.2367 250.098 52.444C285.959 74.6231 322.25 103.494 356.378 138.172C390.507 172.851 418.797 209.599 440.401 245.811Z" fill="#191919"/>
</g>
<defs>
<clipPath id="clip0_1_2353">
<rect width="491.85" height="491.85" fill="white" transform="translate(0.149902 0.80426)"/>
</clipPath>
</defs>
</svg>
