<svg width="116" height="116" viewBox="0 0 116 116" fill="none" xmlns="http://www.w3.org/2000/svg">
<g clip-path="url(#clip0_1_1458)">
<g clip-path="url(#clip1_1_1458)">
<path d="M35.4437 93.676L38.9734 95.698L80.7888 22.7042L77.2591 20.6821L35.4437 93.676Z" fill="#191919"/>
<path d="M35.4437 93.676L38.9734 95.698L80.7888 22.7042L77.2591 20.6821L35.4437 93.676Z" fill="#191919"/>
<path d="M20.6087 39.0466L93.6025 80.8621L95.6246 77.3324L22.6308 35.5169L20.6087 39.0466Z" fill="#191919"/>
<path d="M20.6087 39.0466L93.6025 80.8621L95.6246 77.3324L22.6308 35.5169L20.6087 39.0466Z" fill="#191919"/>
<path d="M67.1819 99.32L71.1075 98.2539L49.0611 17.0721L45.1355 18.1386L67.1819 99.32Z" fill="#191919"/>
<path d="M67.1819 99.32L71.1075 98.2539L49.0611 17.0721L45.1355 18.1386L67.1819 99.32Z" fill="#191919"/>
<path d="M18.0624 71.1837L99.2442 49.1376L98.178 45.2122L16.9965 67.2582L18.0624 71.1837Z" fill="#191919"/>
<path d="M18.0624 71.1837L99.2442 49.1376L98.178 45.2122L16.9965 67.2582L18.0624 71.1837Z" fill="#191919"/>
<path d="M82.4214 92.5589L85.6258 90.0529L33.8033 23.7868L30.5988 26.293L82.4214 92.5589Z" fill="#191919"/>
<path d="M82.4214 92.5589L85.6258 90.0529L33.8033 23.7868L30.5988 26.293L82.4214 92.5589Z" fill="#191919"/>
<path d="M26.2331 85.6823L92.4989 33.8597L89.9929 30.6555L23.7273 82.478L26.2331 85.6823Z" fill="#191919"/>
<path d="M26.2331 85.6823L92.4989 33.8597L89.9929 30.6555L23.7273 82.478L26.2331 85.6823Z" fill="#191919"/>
<path d="M16.1432 54.427L99.4735 65.9633L100.031 61.9338L16.7012 50.3976L16.1432 54.427Z" fill="#191919"/>
<path d="M16.1432 54.427L99.4735 65.9633L100.031 61.9338L16.7012 50.3976L16.1432 54.427Z" fill="#191919"/>
<path d="M50.3695 99.5612L54.3989 100.119L65.9425 16.7935L61.9134 16.235L50.3695 99.5612Z" fill="#191919"/>
<path d="M50.3695 99.5612L54.3989 100.119L65.9425 16.7935L61.9134 16.235L50.3695 99.5612Z" fill="#191919"/>
</g>
</g>
<defs>
<clipPath id="clip0_1_1458">
<rect width="84.1227" height="84.1227" fill="white" transform="translate(73.7056 115.595) rotate(-150.193)"/>
</clipPath>
<clipPath id="clip1_1_1458">
<rect width="84.1227" height="84.1227" fill="white" transform="translate(73.7056 115.595) rotate(-150.193)"/>
</clipPath>
</defs>
</svg>
