<svg width="853" height="657" viewBox="0 0 853 657" fill="none" xmlns="http://www.w3.org/2000/svg">
<path d="M473.259 656.372C292.361 656.372 145.189 509.196 145.189 328.294C145.189 147.391 292.361 0.2146 473.259 0.2146C562.938 0.2146 656.58 34.2947 730.174 93.7174C808.302 156.802 851.59 238.304 852.066 323.212C852.561 412.762 823.317 487.827 765.144 546.323C729.358 582.308 684.178 610.276 630.86 629.452C581.89 647.063 527.392 656.372 473.259 656.372ZM473.259 1.56343C293.104 1.56343 146.538 148.134 146.538 328.294C146.538 508.453 293.104 655.023 473.259 655.023C588.848 655.023 694.886 615.057 764.188 545.371C822.097 487.14 851.211 412.398 850.717 323.22C849.687 139.123 650.588 1.56343 473.259 1.56343Z" fill="#191919"/>
<path d="M462.624 643.1C372.933 643.102 289.25 609.119 226.588 547.157C165.586 486.836 131.991 407.241 131.991 323.035C131.991 241.815 164.658 164.803 223.976 106.182C287.34 43.5625 375.957 8.27977 467.015 9.34242C554.35 10.0525 644.601 43.2157 714.621 100.328C788.971 160.973 830.155 239.799 830.587 322.285C831.117 423.051 791.126 506.829 714.943 564.565C649.54 614.13 561.35 642.014 466.618 643.077C465.288 643.093 463.952 643.1 462.624 643.1ZM462.965 10.6679C373.654 10.6679 287.098 45.6981 224.924 107.141C165.865 165.506 133.339 242.179 133.339 323.034C133.339 406.878 166.792 486.132 227.536 546.198C290.867 608.821 375.755 642.764 466.602 641.729C642.056 639.758 830.376 538.956 829.238 322.292C828.285 140.389 637.57 12.0778 467.001 10.6912C465.655 10.6755 464.311 10.6679 462.965 10.6679Z" fill="#191919"/>
<path d="M451.643 629.876C360.04 629.876 275.168 596.065 211.871 534.162C151.848 475.462 118.792 398.615 118.792 317.775C118.792 243.001 149.721 171.507 205.883 116.462C271.399 52.2491 364.327 16.5349 460.766 18.47C545.845 20.179 632.701 52.5039 699.06 107.157C769.636 165.281 808.717 241.352 809.106 321.358C810.133 529.016 634.496 625.892 459.973 629.783C457.191 629.846 454.414 629.876 451.643 629.876ZM453.304 19.7444C359.866 19.7444 270.404 55.1128 206.826 117.426C150.927 172.215 120.14 243.367 120.14 317.775C120.14 398.249 153.053 474.754 212.814 533.198C275.854 594.849 360.401 628.524 451.643 628.527C454.409 628.527 457.166 628.497 459.944 628.434C633.806 624.559 808.779 528.108 807.757 321.365C806.914 147.75 624.196 23.1023 460.74 19.8193C458.264 19.7691 455.774 19.7444 453.304 19.7444Z" fill="#191919"/>
<path d="M440.312 616.706C346.946 616.707 261.013 583.096 197.138 521.308C138.103 464.204 105.593 390.054 105.593 312.516C105.593 243.659 134.846 177.36 187.964 125.83C220.436 94.327 261.497 68.7225 306.706 51.7852C353.683 34.1853 403.401 26.052 454.523 27.5973C537.271 30.1083 620.73 61.5424 683.503 113.839C750.302 169.489 787.281 242.858 787.628 320.431C788.052 412.445 751.801 488.98 682.797 541.764C623.659 586.998 542.168 613.536 453.332 616.489C448.979 616.634 444.636 616.706 440.312 616.706ZM442.345 28.7622C345.292 28.7622 253.493 64.1378 188.902 126.799C136.049 178.072 106.942 244.028 106.942 312.516C106.942 389.685 139.307 463.491 198.076 520.339C264.643 584.73 355.276 618.387 453.287 615.141C607.501 610.015 787.243 529.758 786.279 320.438C785.528 152.075 614.111 33.7906 454.481 28.9465C450.43 28.8236 446.381 28.7622 442.345 28.7622Z" fill="#191919"/>
<path d="M428.687 603.594C383.124 603.594 339.282 595.861 298.109 580.54C254.104 564.165 215.172 539.961 182.398 508.602C124.358 453.067 92.3943 381.561 92.3943 307.257C92.3943 243.062 119.221 183.375 169.974 134.65C238.338 69.0147 342.375 32.3957 448.277 36.7261C528.673 40.0042 608.739 70.5371 667.945 120.495C730.969 173.675 765.846 244.351 766.147 319.504C766.519 407.165 732.139 480.104 666.723 530.434C610.662 573.566 532.52 599.407 446.691 603.194C440.663 603.461 434.658 603.594 428.687 603.594ZM431.402 37.7309C331.752 37.7309 235.393 73.7125 170.908 135.623C120.426 184.088 93.7436 243.438 93.7436 307.257C93.7436 381.189 125.56 452.349 183.331 507.627C251.517 572.869 345.032 606.32 446.63 601.847C593.929 595.347 765.638 517.504 764.799 319.51C764.131 153.62 599.952 44.2611 448.222 38.074C442.611 37.8448 436.998 37.7309 431.402 37.7309Z" fill="#191919"/>
<path d="M416.697 590.546C371.108 590.546 327.293 583.071 286.141 568.246C240.93 551.959 201.066 527.668 167.661 496.05C110.613 442.054 79.1957 373.14 79.1957 301.997C79.1957 243.124 104.36 188.101 151.968 142.878C221.966 76.3857 330.403 40.1157 442.03 45.8533C521.2 49.9235 595.907 78.7873 652.387 127.128C711.636 177.837 744.409 245.829 744.669 318.576C744.835 362.073 736.244 401.7 719.135 436.359C703.361 468.312 680.318 496.165 650.65 519.147C597.629 560.218 522.837 585.345 440.049 589.9C432.218 590.331 424.431 590.546 416.697 590.546ZM418.984 46.6109C315.958 46.6109 217.823 82.1821 152.896 143.856C105.564 188.817 80.5445 243.502 80.5445 301.997C80.5445 372.765 111.812 441.333 168.588 495.07C238.395 561.142 334.789 594.337 439.974 588.553C587.089 580.458 744.034 505.285 743.32 318.581C742.748 158.378 589.646 54.7927 441.962 47.2008C434.288 46.8065 426.616 46.6109 418.984 46.6109Z" fill="#191919"/>
<path d="M404.359 577.571C358.869 577.571 315.189 570.363 274.146 556.053C228.4 540.103 186.486 515.07 152.937 483.662C97.6852 431.937 65.9982 363.805 65.9982 296.739C65.9982 242.857 89.5119 192.282 133.996 150.481C204.356 84.3661 319.998 47.7736 435.785 54.9824C512.525 59.7601 583.924 87.7294 636.831 133.738C692.303 181.976 722.971 247.29 723.189 317.65V317.65C723.458 397.779 693.646 461.788 634.578 507.9C583.836 547.513 514.272 571.27 433.406 576.606C423.65 577.249 413.963 577.571 404.359 577.571ZM406.823 55.4328C301.337 55.4328 199.169 91.091 134.92 151.464C90.7132 193.003 67.3466 243.239 67.3466 296.739C67.3466 363.434 98.8784 431.206 153.858 482.677C224.262 548.588 326.133 582.332 433.316 575.259C573.187 566.031 722.432 493.512 721.84 317.654C721.411 178.803 598.399 66.4576 435.701 56.3281C426.071 55.7293 416.426 55.4328 406.823 55.4328Z" fill="#191919"/>
<path d="M391.668 564.674C346.408 564.674 302.976 557.741 262.134 543.965C215.234 528.146 172.39 503.067 138.235 471.443C83.9402 421.17 52.7996 355.576 52.7996 291.479C52.7996 242.271 74.689 195.918 116.103 157.432C187.66 90.9334 307.766 55.1743 429.54 64.1097C503.824 69.5597 571.917 96.6265 621.277 140.323C673.721 186.75 701.533 247.748 701.71 316.721C701.926 392.48 673.933 453.029 618.509 496.687C570.779 534.284 504.475 557.322 426.764 563.31C414.958 564.219 403.249 564.674 391.668 564.674ZM392.521 64.1038C284.187 64.1038 181.068 98.9012 117.021 158.42C75.8894 196.644 54.1488 242.656 54.1488 291.479C54.1488 355.201 85.1312 420.435 139.152 470.453C211.173 537.138 315.948 570.493 426.661 561.965C598.443 548.73 700.761 457.051 700.361 316.726C700.013 180.459 588.607 77.1328 429.443 65.4549C417.103 64.5497 404.775 64.1038 392.521 64.1038Z" fill="#191919"/>
<path d="M378.626 551.867C333.732 551.867 290.659 545.218 250.116 531.994C202.083 516.328 158.325 491.227 123.57 459.406C70.2056 410.548 39.601 347.424 39.601 286.22C39.601 241.378 59.9075 199.019 98.3243 163.72C169.769 98.0751 297.327 62.5586 423.295 73.2381C495.099 79.3242 559.887 105.481 605.726 146.888C654.334 190.798 680.098 249.205 680.23 315.795C680.392 387.199 654.222 444.299 602.445 485.509C557.693 521.128 494.646 543.433 420.121 550.015C406.136 551.25 392.294 551.867 378.626 551.867ZM378.71 72.7087C268.313 72.7087 162.014 107.032 99.2376 164.713C61.1051 199.75 40.9502 241.766 40.9502 286.22C40.9502 347.047 71.3952 409.808 124.48 458.411C189.396 517.847 280.78 550.455 379.689 550.459C393.011 550.459 406.452 549.868 420.003 548.672C497.984 541.785 679.314 505.309 678.881 315.798C678.621 184.462 575.863 87.5248 423.183 74.5815C408.354 73.3251 393.485 72.7087 378.71 72.7087Z" fill="#191919"/>
<path d="M366.284 539.088C266.298 539.089 174.377 506.78 108.949 447.559C56.4893 400.075 26.4023 339.353 26.4023 280.961C26.4023 240.192 45.1757 201.592 80.6934 169.337C115.968 137.303 166.435 112.151 226.638 96.602C286.77 81.0718 352.616 76.1479 417.051 82.3663C487.351 89.1495 547.217 113.724 590.179 153.432C634.95 194.814 658.663 250.638 658.751 314.868V314.867C658.859 381.934 634.513 435.595 586.386 474.362C544.579 508.039 484.788 529.602 413.48 536.721C397.601 538.306 381.842 539.088 366.284 539.088ZM362.044 81.074C249.658 81.074 143.53 114.095 81.6009 170.335C46.3715 202.328 27.7512 240.582 27.7512 280.961C27.7512 338.972 57.6776 399.33 109.855 446.559C185.181 514.738 295.803 547.113 413.345 535.378C568.648 519.875 657.604 439.503 657.402 314.87V314.869C657.229 188.524 562.833 97.788 416.922 83.708C398.577 81.9393 380.222 81.074 362.044 81.074Z" fill="#191919"/>
<path d="M352.493 526.48C252.003 526.484 160.026 494.628 94.3909 435.914C42.7953 389.759 13.2035 331.364 13.2035 275.702C13.2035 238.194 30.0368 204.072 63.2332 174.284C134.905 109.974 274.593 76.7025 410.805 91.4948C478.534 98.849 535.185 122.522 574.635 159.955C615.568 198.794 637.227 252.042 637.271 313.94C637.375 432.423 555.538 506.819 406.838 523.425C388.528 525.47 370.366 526.479 352.493 526.48ZM346.093 89.3632C232.357 89.3632 124.224 121.371 64.1339 175.289C31.2335 204.81 14.5519 238.594 14.5519 275.703C14.5519 330.981 43.9804 389.01 95.2903 434.909C160.667 493.393 252.346 525.127 352.489 525.131C370.326 525.132 388.413 524.126 406.687 522.085C492.358 512.518 636.059 472.756 635.921 313.943C635.834 190.8 551.624 108.143 410.66 92.8364C389.133 90.4985 367.508 89.3632 346.093 89.3632Z" fill="#191919"/>
<path d="M338.337 513.992C237.585 513.992 145.695 482.617 79.903 424.474C29.1278 379.6 0.00610352 323.458 0.00610352 270.443C0.00610352 236.505 15.4708 205.594 45.9669 178.568C81.2586 147.294 134.496 123.315 199.925 109.223C264.836 95.2433 335.6 92.2702 404.563 100.623C470.617 108.619 522.609 130.769 559.098 166.456C596.717 203.25 615.792 252.559 615.792 313.014C615.792 371.454 595.099 418.266 554.287 452.146C517.755 482.475 465.911 501.984 400.195 510.13C379.314 512.717 358.641 513.992 338.337 513.992ZM327.514 97.3349C284.029 97.3349 240.968 101.764 200.21 110.542C135.006 124.585 81.979 148.457 46.8631 179.577C16.6667 206.336 1.35538 236.908 1.35538 270.443C1.35538 323.072 30.3107 378.845 80.7979 423.463C159.556 493.067 275.911 524.164 400.031 508.792C497.845 496.665 614.444 452.857 614.444 313.014C614.444 195.046 537.886 118.12 404.4 101.962C378.892 98.873 353.126 97.3349 327.514 97.3349Z" fill="#191919"/>
</svg>
