<svg width="179" height="54" viewBox="0 0 179 54" fill="none" xmlns="http://www.w3.org/2000/svg">
<path d="M58.7848 10.7752L58.8914 4.66891L89.6138 5.20518L89.5072 11.3115L77.6483 11.1045L77.0174 47.249L70.1356 47.1289L70.7665 10.9844L58.7848 10.7752Z" fill="white"/>
<path d="M107.792 42.2333L109.515 42.0783L109.551 47.0765C104.865 47.9407 100.719 48.3414 97.1144 48.2785C92.5675 48.1991 89.3123 46.8877 87.3489 44.3444C85.4264 41.8017 84.5133 37.7754 84.6095 32.2653C84.8004 21.3274 89.3404 15.936 98.2294 16.0912C106.832 16.2413 111.051 21.0246 110.886 30.4411L110.372 35.2446L91.3243 34.9122C91.3207 37.4623 91.8411 39.3429 92.8853 40.554C93.9295 41.7651 95.9058 42.396 98.8142 42.4467C101.723 42.4975 104.715 42.4264 107.792 42.2333ZM104.318 29.9563C104.371 26.9134 103.917 24.7871 102.954 23.5775C102.034 22.3274 100.426 21.6824 98.1325 21.6424C95.8385 21.6023 94.1479 22.2104 93.0606 23.4665C92.0143 24.7233 91.4452 26.8112 91.3532 29.73L104.318 29.9563Z" fill="white"/>
<path d="M113.951 47.8937L114.489 17.0537L121.125 17.1695L121.06 20.8703C124.582 18.6695 128.089 17.2705 131.582 16.6733L131.465 23.3965C127.93 24.034 124.903 24.8861 122.385 25.9527L121.024 26.4842L120.648 48.0106L113.951 47.8937Z" fill="white"/>
<path d="M133.08 48.2276L133.618 17.3876L140.254 17.5034L140.19 21.2042C143.711 19.0034 147.219 17.6044 150.712 17.0072L150.595 23.7304C147.06 24.3679 144.033 25.22 141.515 26.2866L140.153 26.8181L139.778 48.3445L133.08 48.2276Z" fill="white"/>
<path d="M175.317 27.617L175.071 41.6801C175.096 42.5854 175.31 43.2678 175.712 43.7273C176.155 44.1464 176.826 44.4254 177.725 44.5645L177.452 49.6808C173.929 49.6193 171.218 48.811 169.319 47.256C166.016 48.7202 162.705 49.4233 159.387 49.3654C153.283 49.2589 150.289 45.9366 150.403 39.3985C150.457 36.2734 151.316 34.0261 152.979 32.6566C154.683 31.2878 157.258 30.4896 160.704 30.2618L168.642 29.7217L168.681 27.5012C168.709 25.8564 168.361 24.6986 167.635 24.0278C166.95 23.3577 165.911 23.0105 164.518 22.9862C161.897 22.9405 158.617 23.0477 154.679 23.3081L152.71 23.3971L152.547 18.6434C157.031 17.6523 161.137 17.1892 164.864 17.2543C168.633 17.3201 171.322 18.1896 172.932 19.863C174.584 21.496 175.378 24.0807 175.317 27.617ZM161.42 35.0251C158.589 35.2225 157.149 36.7398 157.099 39.5771C157.05 42.4144 158.274 43.8548 160.773 43.8984C162.821 43.9342 164.998 43.6431 167.303 43.0252L168.416 42.6745L168.559 34.471L161.42 35.0251Z" fill="white"/>
<path fill-rule="evenodd" clip-rule="evenodd" d="M40.3652 0.803927C45.712 0.897255 50.1067 4.76775 51.0504 9.82755C51.1852 10.5504 51.2496 11.2975 51.2363 12.0613L50.7419 40.3858C50.6352 46.4964 45.5951 51.3636 39.4845 51.2569L11.16 50.7625C9.95029 50.7414 8.78929 50.5269 7.70597 50.149C3.31722 48.6183 0.203362 44.406 0.288908 39.5051L0.783313 11.1806C0.889974 5.07003 5.93007 0.20286 12.0407 0.309521L40.3652 0.803927ZM35.8158 4.26616L40.3034 4.34449C43.9701 4.40849 46.9785 7.08489 47.5852 10.5686C45.4515 10.7727 43.0215 10.5066 40.4705 9.36026C38.2098 8.34432 36.7305 6.50938 35.8158 4.26616ZM25.3105 4.08279L32.0353 4.20017C33.0938 7.58299 35.1777 10.864 39.019 12.5902C42.1003 13.9749 45.0435 14.335 47.6587 14.1213L47.5955 17.739C44.0313 18.7993 40.4911 19.1917 37.6793 18.3152C36.2826 17.8798 34.6909 16.7608 32.9874 15.0145C31.3073 13.292 29.6392 11.0852 28.0698 8.67754C27.0944 7.18128 26.1679 5.62422 25.3105 4.08279ZM21.2442 4.01181L16.5592 3.93003C16.7028 7.9402 15.6734 12.8174 12.0752 17.7137C9.69133 20.9576 6.9086 22.7162 4.11036 23.4744L3.98716 30.5326C5.68257 29.5431 7.68183 28.1862 10.0269 26.3478C15.5679 22.0041 19.9019 20.313 23.1705 20.0469C26.4203 19.7823 28.7067 20.9478 29.6978 22.3879C30.7382 23.8995 31.3062 25.9109 31.4962 28.0252C31.6886 30.165 31.5071 32.5448 30.9271 34.8996C29.7742 39.581 26.9703 44.4259 22.0266 46.9776C21.7574 47.1166 21.4858 47.2562 21.212 47.3963L26.7152 47.4924C28.9153 44.7976 30.685 42.1129 31.3398 39.9961C32.0789 37.6067 32.4096 35.0656 32.7188 32.6898L32.7188 32.6894L32.7189 32.6889C32.83 31.8356 32.9383 31.0035 33.0617 30.2075C33.2756 28.8281 33.563 27.3678 34.1442 26.3213C34.4517 25.7675 34.9356 25.1534 35.7033 24.8074C36.5115 24.4432 37.3447 24.5042 38.072 24.7608C40.1108 25.4802 42.8346 25.6694 47.4759 24.5926L47.531 21.4344C43.95 22.3763 40.0564 22.7654 36.6254 21.6958C34.4115 21.0057 32.3264 19.408 30.4526 17.4871C28.5555 15.5423 26.7459 13.1312 25.1033 10.6113C23.6982 8.45576 22.3947 6.18871 21.2442 4.01181ZM47.4124 28.2339C42.9924 29.1647 39.8275 29.0675 37.1645 28.1924C36.9585 28.6522 36.7594 29.4705 36.561 30.7502C36.4624 31.3859 36.3685 32.1089 36.267 32.8907L36.267 32.8913C35.9507 35.3278 35.5604 38.3346 34.7227 41.0426C34.0806 43.1183 32.7308 45.3873 31.135 47.5695L34.6971 47.6317C35.3826 46.0094 36.0149 44.4638 36.5129 43.1641C37.0481 41.7676 37.3857 40.7625 37.4975 40.2499C37.71 39.2764 38.1005 38.232 38.9865 37.502C39.9081 36.7427 41.0263 36.5959 42.0703 36.6672C43.0983 36.7375 44.2999 37.0357 45.6542 37.4498C46.1466 37.6004 46.6756 37.7717 47.2426 37.9614L47.4124 28.2339ZM47.0632 41.6404C46.1442 41.3242 45.3355 41.0554 44.6186 40.8361C43.3101 40.436 42.4313 40.2413 41.8288 40.2001C41.4398 40.1735 41.2813 40.2187 41.2358 40.2381C41.2099 40.2676 41.0812 40.4368 40.9572 41.0048C40.7804 41.8153 40.3464 43.0563 39.8196 44.4312C39.4414 45.4183 38.993 46.5305 38.5085 47.6982L39.5463 47.7163C43.2517 47.781 46.3783 45.1561 47.0632 41.6404ZM13.5726 47.263C15.9121 46.1077 18.2737 44.9297 20.4024 43.831C24.17 41.8863 26.4976 38.0774 27.4888 34.0528C27.9809 32.0546 28.1245 30.0683 27.9694 28.3423C27.8119 26.5907 27.3595 25.2363 26.7808 24.3955C26.6925 24.2672 25.8051 23.3852 23.4578 23.5763C21.1293 23.7659 17.443 25.0337 12.2116 29.1346C8.93689 31.7018 6.20334 33.4522 3.91615 34.6009L3.84645 38.5939C4.41409 38.0923 5.05244 37.6763 5.64183 37.3221C6.2423 36.9613 6.89589 36.6074 7.53815 36.2618L7.69734 36.1762C8.29732 35.8535 8.89281 35.5333 9.48451 35.1928C10.779 34.4479 11.9448 33.6666 12.8468 32.7496C14.4085 31.162 16.6555 29.2737 18.7594 27.9947C19.7974 27.3637 20.916 26.8091 21.9667 26.5638C22.9527 26.3337 24.4767 26.2596 25.5162 27.4907C26.5054 28.6621 26.8936 30.4001 26.1191 32.6334C25.3835 34.7545 23.5826 37.4177 20.1314 40.8616C16.5489 44.4365 12.998 46.1967 10.0209 46.7253C9.68518 46.7849 9.35514 46.8291 9.03198 46.8582C9.72286 47.0819 10.4581 47.2086 11.2218 47.2219L13.5726 47.263ZM4.17575 19.7282C5.90355 19.0467 7.63519 17.7757 9.22173 15.6168C12.3544 11.3539 13.1663 7.18141 13.0137 3.86814L11.9789 3.85008C7.82367 3.77755 4.3964 7.08722 4.32387 11.2424L4.17575 19.7282ZM41.2323 40.2396C41.2239 40.2434 41.2205 40.246 41.2208 40.2463C41.2211 40.2465 41.223 40.2457 41.2262 40.2437L41.2284 40.2423L41.2323 40.2396ZM20.5989 31.0206C18.7963 32.1163 16.775 33.8058 15.3713 35.2328C14.1327 36.492 12.6395 37.4628 11.2508 38.262C10.6125 38.6292 9.973 38.9731 9.38021 39.2919L9.21602 39.3802C8.56642 39.7297 7.9839 40.046 7.46581 40.3573C6.34869 41.0286 5.8786 41.4849 5.72863 41.7796C5.68562 41.8641 5.67983 41.9129 5.69133 41.9876C5.70769 42.0938 5.77963 42.3398 6.07576 42.7493L6.10455 42.7891L6.13111 42.8305C6.13277 42.8329 6.17167 42.8885 6.29702 42.9683C6.42648 43.0506 6.62749 43.1448 6.91397 43.2206C7.48969 43.3729 8.33066 43.429 9.4018 43.2388C11.5318 42.8605 14.4543 41.5241 17.6301 38.355C20.9372 35.055 22.2974 32.846 22.7734 31.4732C23.0569 30.6558 23.0096 30.2096 22.9275 29.9806C22.8842 29.9878 22.8326 29.998 22.7717 30.0122C22.2582 30.1321 21.5142 30.4641 20.5989 31.0206ZM23.1183 29.9673C23.1175 29.9682 23.1069 29.9682 23.089 29.9643C23.1101 29.9645 23.1191 29.9664 23.1183 29.9673Z" fill="white"/>
</svg>
