<svg width="193" height="52" viewBox="0 0 193 52" fill="none" xmlns="http://www.w3.org/2000/svg">
<path d="M60.1831 30.6767L53.1092 30.5532L51.8796 33.9171L48.1391 33.8518L54.8365 16.1766L58.9841 16.249L65.0606 34.1471L61.2946 34.0814L60.1831 30.6767ZM59.2659 27.8099L56.8256 20.3348L54.1259 27.7202L59.2659 27.8099Z" fill="white"/>
<path d="M79.9843 20.3064L79.7382 34.4033L76.1504 34.3407L76.1814 32.5595C75.7128 33.1622 75.1021 33.6352 74.3495 33.9784C73.6141 34.3049 72.8138 34.4606 71.9487 34.4455C70.846 34.4263 69.8746 34.1803 69.0344 33.7074C68.1945 33.2176 67.5364 32.5189 67.0602 31.6112C66.6012 30.6869 66.3826 29.5971 66.4045 28.3417L66.5489 20.0718L70.1113 20.134L69.9758 27.895C69.9563 29.0146 70.2211 29.8847 70.7702 30.5051C71.3197 31.1086 72.0779 31.4188 73.0448 31.4357C74.0287 31.4529 74.8058 31.1695 75.3759 30.5855C75.9464 29.9846 76.2414 29.1243 76.261 28.0047L76.3964 20.2437L79.9843 20.3064Z" fill="white"/>
<path d="M86.5779 23.3486L86.4589 30.1681C86.4506 30.6431 86.5548 30.9928 86.7715 31.2171C87.0054 31.4249 87.3938 31.5334 87.9367 31.5429L89.5906 31.5718L89.5382 34.5744L87.299 34.5353C84.2964 34.4829 82.8206 32.9978 82.8715 30.08L82.9901 23.286L81.3107 23.2567L81.3617 20.3304L83.0412 20.3597L83.102 16.8736L86.6899 16.9363L86.629 20.4223L89.7843 20.4774L89.7332 23.4037L86.5779 23.3486Z" fill="white"/>
<path d="M97.3384 34.9396C95.9812 34.9159 94.765 34.5978 93.6897 33.9851C92.6147 33.3554 91.7729 32.4838 91.1645 31.3702C90.5731 30.2569 90.2899 28.9793 90.3151 27.5373C90.3403 26.0954 90.6763 24.8286 91.3232 23.7369C91.9871 22.6455 92.8755 21.8125 93.9886 21.238C95.1019 20.6466 96.3371 20.3627 97.6942 20.3864C99.0513 20.4101 100.276 20.7369 101.368 21.3669C102.46 21.9798 103.31 22.8431 103.919 23.9567C104.544 25.0706 104.844 26.3486 104.819 27.7905C104.794 29.2324 104.441 30.4989 103.76 31.59C103.096 32.6814 102.199 33.5227 101.069 34.1139C99.956 34.6884 98.7124 34.9636 97.3384 34.9396ZM97.3925 31.8352C98.0372 31.8465 98.6421 31.7043 99.2072 31.4088C99.7896 31.0965 100.256 30.6295 100.606 30.0078C100.956 29.386 101.139 28.6256 101.155 27.7265C101.178 26.3864 100.84 25.3539 100.14 24.6289C99.4573 23.8873 98.607 23.5077 97.5891 23.4899C96.5713 23.4721 95.7082 23.8219 95 24.5392C94.309 25.2399 93.9518 26.2602 93.9284 27.6004C93.905 28.9405 94.2178 29.9811 94.8666 30.7221C95.5327 31.4464 96.3747 31.8175 97.3925 31.8352Z" fill="white"/>
<path d="M124.048 20.8719C125.778 20.9021 127.16 21.4607 128.193 22.5478C129.243 23.6182 129.752 25.1034 129.719 27.0033L129.574 35.2732L126.012 35.2111L126.148 27.4246C126.167 26.322 125.902 25.4774 125.352 24.8908C124.803 24.2873 124.045 23.9771 123.078 23.9603C122.111 23.9434 121.334 24.2268 120.747 24.8104C120.177 25.3774 119.882 26.2123 119.863 27.3149L119.727 35.1013L116.165 35.0392L116.3 27.2527C116.32 26.1501 116.054 25.3055 115.505 24.7189C114.955 24.1154 114.197 23.8052 113.23 23.7884C112.246 23.7712 111.461 24.0544 110.874 24.6381C110.304 25.2051 110.009 26.0399 109.99 27.1426L109.854 34.929L106.292 34.8668L106.538 20.7698L110.1 20.832L110.07 22.5369C110.539 21.9512 111.132 21.4949 111.85 21.168C112.586 20.8415 113.386 20.6858 114.251 20.7009C115.354 20.7201 116.334 20.9748 117.191 21.4649C118.048 21.938 118.706 22.6113 119.166 23.4847C119.638 22.6785 120.311 22.0369 121.185 21.56C122.076 21.0835 123.03 20.8541 124.048 20.8719Z" fill="white"/>
<path d="M131.145 28.1991C131.17 26.7741 131.472 25.5152 132.051 24.4223C132.647 23.3297 133.434 22.495 134.411 21.9182C135.405 21.3416 136.505 21.0638 137.709 21.0849C138.761 21.1032 139.673 21.3313 140.446 21.769C141.236 22.207 141.863 22.7525 142.326 23.4054L142.362 21.3952L145.949 21.4578L145.703 35.5548L142.115 35.4921L142.151 33.431C141.682 34.0846 141.036 34.6248 140.214 35.0517C139.409 35.4619 138.481 35.6578 137.429 35.6394C136.242 35.6187 135.162 35.2944 134.188 34.6665C133.232 34.0389 132.475 33.1688 131.918 32.0561C131.377 30.9267 131.12 29.641 131.145 28.1991ZM142.238 28.4436C142.254 27.5785 142.097 26.8376 141.768 26.221C141.44 25.5874 140.99 25.1044 140.419 24.772C139.848 24.4227 139.232 24.2422 138.57 24.2307C137.909 24.2191 137.295 24.3696 136.73 24.6822C136.164 24.9947 135.698 25.4617 135.331 26.0832C134.981 26.6879 134.799 27.4144 134.784 28.2626C134.769 29.1108 134.926 29.8602 135.254 30.5107C135.599 31.1446 136.048 31.6361 136.602 31.9851C137.173 32.3345 137.781 32.5148 138.426 32.526C139.087 32.5376 139.709 32.3872 140.292 32.075C140.874 31.7458 141.341 31.2788 141.69 30.674C142.041 30.0523 142.223 29.3088 142.238 28.4436Z" fill="white"/>
<path d="M152.507 24.4994L152.388 31.3189C152.38 31.7939 152.484 32.1436 152.701 32.3679C152.935 32.5757 153.323 32.6843 153.866 32.6937L155.52 32.7226L155.468 35.7252L153.229 35.6861C150.226 35.6337 148.75 34.1486 148.801 31.2308L148.92 24.4368L147.24 24.4075L147.291 21.4812L148.971 21.5105L149.032 18.0244L152.619 18.0871L152.559 21.5731L155.714 21.6282L155.663 24.5545L152.507 24.4994Z" fill="white"/>
<path d="M159.094 20.0073C158.467 19.9963 157.944 19.7921 157.527 19.3945C157.127 18.9803 156.932 18.4763 156.942 17.8825C156.953 17.2888 157.165 16.8004 157.579 16.4173C158.01 16.0176 158.539 15.8232 159.167 15.8342C159.795 15.8451 160.309 16.0577 160.709 16.472C161.126 16.8695 161.329 17.3652 161.319 17.9589C161.309 18.5527 161.088 19.0494 160.657 19.4491C160.243 19.8322 159.722 20.0182 159.094 20.0073ZM160.821 21.7174L160.575 35.8143L157.012 35.7522L157.258 21.6552L160.821 21.7174Z" fill="white"/>
<path d="M169.332 36.1963C167.975 36.1726 166.759 35.8544 165.683 35.2417C164.608 34.6121 163.767 33.7404 163.158 32.6268C162.567 31.5135 162.284 30.2359 162.309 28.794C162.334 27.352 162.67 26.0852 163.317 24.9935C163.981 23.9021 164.869 23.0692 165.982 22.4947C167.096 21.9033 168.331 21.6194 169.688 21.6431C171.045 21.6667 172.27 21.9936 173.362 22.6235C174.454 23.2365 175.304 24.0998 175.913 25.2134C176.538 26.3273 176.838 27.6052 176.813 29.0471C176.788 30.4891 176.435 31.7556 175.754 32.8467C175.09 33.9381 174.193 34.7794 173.063 35.3705C171.95 35.945 170.706 36.2203 169.332 36.1963ZM169.386 33.0919C170.031 33.1032 170.636 32.961 171.201 32.6654C171.783 32.3532 172.25 31.8862 172.6 31.2644C172.95 30.6427 173.133 29.8823 173.149 28.9832C173.172 27.643 172.834 26.6105 172.134 25.8856C171.451 25.144 170.601 24.7643 169.583 24.7466C168.565 24.7288 167.702 25.0786 166.994 25.7959C166.303 26.4965 165.946 27.5169 165.922 28.857C165.899 30.1972 166.212 31.2378 166.86 31.9788C167.527 32.7031 168.368 33.0741 169.386 33.0919Z" fill="white"/>
<path d="M186.347 21.9593C188.026 21.9886 189.374 22.5467 190.39 23.6334C191.407 24.7033 191.898 26.1882 191.865 28.0881L191.721 36.358L188.158 36.2958L188.294 28.5094C188.314 27.3898 188.049 26.5282 187.499 25.9247C186.95 25.3042 186.192 24.9856 185.225 24.9687C184.241 24.9515 183.456 25.2432 182.868 25.8439C182.298 26.4278 182.003 27.2796 181.984 28.3992L181.848 36.1857L178.285 36.1235L178.531 22.0265L182.094 22.0887L182.063 23.8444C182.549 23.242 183.159 22.7776 183.895 22.451C184.647 22.1078 185.465 21.9439 186.347 21.9593Z" fill="white"/>
<path d="M19.2011 18.8759L19.2759 14.59C14.0461 14.6786 9.78918 18.8994 9.69719 24.1699L9.68528 24.8522L0.528874 24.6924L0.540783 24.0101C0.721054 13.6824 9.14838 5.43336 19.4358 5.43077L19.5167 0.795032L35.0487 10.2799L19.2011 18.8759Z" fill="white"/>
<path d="M27.1504 24.4746L27.1385 25.1569C27.0465 30.4273 22.7898 34.648 17.5602 34.7368L17.635 30.4512L1.78743 39.0471L17.3194 48.532L17.4004 43.8961C27.6875 43.8932 36.1146 35.6443 36.2949 25.3168L36.3068 24.6345L27.1504 24.4746Z" fill="white"/>
</svg>
