<svg width="188" height="42" viewBox="0 0 188 42" fill="none" xmlns="http://www.w3.org/2000/svg">
<path fill-rule="evenodd" clip-rule="evenodd" d="M106.57 38.7506C104.576 38.7158 102.919 38.2224 101.598 37.2703C101.453 37.1662 101.313 37.0581 101.176 36.946L101.156 38.0987L96.6981 38.0209L97.2909 4.05775L102.38 4.14659L102.126 18.6964C103.389 17.9154 104.907 17.5404 106.679 17.5713C108.599 17.6048 110.263 18.0922 111.671 19.0334C113.079 19.9746 114.159 21.2507 114.911 22.8617C115.676 24.4605 116.04 26.2815 116.005 28.3247C115.97 30.3308 115.548 32.1256 114.74 33.7094C113.945 35.2934 112.845 36.5377 111.442 37.4422C110.039 38.3467 108.415 38.7828 106.57 38.7506ZM101.833 24.8816C101.519 25.7927 101.352 26.8551 101.331 28.0686C101.31 29.2821 101.44 30.3496 101.721 31.2711C102.002 32.1927 102.473 32.9131 103.133 33.4325C103.805 33.9521 104.704 34.2217 105.831 34.2414C106.921 34.2604 107.817 34.0035 108.52 33.4708C109.223 32.938 109.75 32.2164 110.1 31.3059C110.451 30.383 110.636 29.3582 110.655 28.2314C110.675 27.1169 110.519 26.0985 110.188 25.1761C109.858 24.2413 109.332 23.4951 108.611 22.9375C107.903 22.3677 106.985 22.073 105.858 22.0534C104.805 22.035 103.947 22.2739 103.281 22.7702C102.629 23.2666 102.146 23.9704 101.833 24.8816Z" fill="white"/>
<path d="M88.0238 22.9312C88.6426 23.6728 88.9405 24.7061 88.9173 26.0311L88.7105 37.8815L93.7627 37.9697L93.9929 24.7819C94.0312 22.5901 93.4739 20.8091 92.3211 19.4388C91.1808 18.0564 89.4653 17.3452 87.1745 17.3052C85.8371 17.2818 84.6122 17.5577 83.4997 18.1329C82.4813 18.6542 81.6452 19.3804 80.9913 20.3116C80.531 19.4481 79.8867 18.7332 79.0585 18.1668C78.0672 17.4807 76.7852 17.1238 75.2125 17.0964C73.838 17.0724 72.5883 17.354 71.4632 17.9414C70.6129 18.3903 69.8906 18.9681 69.2962 19.6747L69.3346 17.4769L64.8767 17.3991L64.5266 37.4594L69.616 37.5482L69.828 25.4006C69.8481 24.249 70.1802 23.3196 70.8243 22.6124C71.4809 21.893 72.3355 21.5425 73.3881 21.5609C74.4902 21.5802 75.3443 21.9667 75.9505 22.7204C76.5693 23.4621 76.8671 24.4954 76.844 25.8203L76.6371 37.6708L81.6893 37.759L81.9014 25.6113C81.9148 24.8436 82.069 24.1712 82.3639 23.5942C82.6715 23.005 83.0881 22.5539 83.6138 22.2411C84.1398 21.9158 84.7556 21.7593 85.4615 21.7717C86.5635 21.7909 87.4177 22.1774 88.0238 22.9312Z" fill="white"/>
<path d="M46.4297 36.9391C47.411 37.4889 48.688 37.7775 50.2606 37.8049C52.2295 37.8393 53.8653 37.4405 55.1681 36.6086C55.7862 36.2176 56.3329 35.7666 56.8082 35.2554L56.7721 37.324L61.2299 37.4018L61.5801 17.3415L56.4907 17.2527L56.313 27.4314C56.2914 28.6697 56.1315 29.6702 55.8333 30.433C55.5477 31.1836 55.1847 31.7533 54.7444 32.1419C54.3043 32.5183 53.8354 32.7702 53.3377 32.8978C52.84 33.0253 52.3744 33.0853 51.941 33.0778C50.8637 33.059 50.0321 32.8029 49.4461 32.3096C48.8726 31.8165 48.462 31.2086 48.2145 30.4858C47.967 29.7631 47.8247 29.0484 47.7874 28.3417C47.7504 27.6226 47.7359 27.034 47.7439 26.5758L47.9093 17.1029L42.7828 17.0134L42.5863 28.2695C42.5804 28.6038 42.5959 29.1367 42.6327 29.8682C42.6695 30.5996 42.7977 31.4132 43.0174 32.3089C43.2374 33.1922 43.6126 34.0472 44.1432 34.874C44.6862 35.701 45.4483 36.3893 46.4297 36.9391Z" fill="white"/>
<path d="M123.383 20.7985C123.173 21.0646 122.983 21.3449 122.811 21.6394L122.868 18.4113L118.41 18.3335L118.06 38.3938L123.149 38.4826L123.328 28.2296C123.341 27.4619 123.459 26.7764 123.68 26.1734C123.901 25.5579 124.22 25.0308 124.636 24.5922C125.053 24.1411 125.561 23.7846 126.16 23.5225C126.759 23.2481 127.425 23.0925 128.156 23.0557C128.9 23.0068 129.549 23.0738 130.103 23.2569L130.186 18.539C129.58 18.4541 128.974 18.4312 128.366 18.4701C127.759 18.4967 127.169 18.5917 126.596 18.7551C126.024 18.9061 125.493 19.126 125.005 19.4148C124.367 19.7752 123.827 20.2365 123.383 20.7985Z" fill="white"/>
<path fill-rule="evenodd" clip-rule="evenodd" d="M140.463 39.3423C138.408 39.3064 136.601 38.8351 135.044 37.9285C133.499 37.0097 132.295 35.7686 131.43 34.2051C130.578 32.6295 130.17 30.8387 130.205 28.8327C130.243 26.6409 130.71 24.7415 131.605 23.1345C132.5 21.5275 133.717 20.2914 135.255 19.4265C136.794 18.5491 138.554 18.1277 140.536 18.1623C142.641 18.199 144.422 18.7256 145.878 19.7419C147.334 20.7583 148.399 22.1704 149.074 23.9782C149.748 25.7861 149.959 27.9017 149.706 30.3251L135.621 30.0792C135.757 31.2859 136.114 32.2707 136.69 33.0335C137.49 34.0632 138.676 34.5917 140.248 34.6192C141.239 34.6365 142.091 34.4346 142.805 34.0135C143.518 33.5924 144.067 32.9765 144.453 32.1657L149.48 33.7027C148.693 35.5222 147.473 36.9253 145.821 37.9122C144.181 38.8993 142.395 39.376 140.463 39.3423ZM143.835 23.9611C144.256 24.5552 144.531 25.3961 144.66 26.4838L135.819 26.3295C136.032 25.4064 136.375 24.6506 136.847 24.0621C137.682 23.0238 138.961 22.5197 140.682 22.5497C142.156 22.5755 143.207 23.0459 143.835 23.9611Z" fill="white"/>
<path fill-rule="evenodd" clip-rule="evenodd" d="M172.08 39.0766C173.073 39.639 174.288 39.9327 175.725 39.9577C177.458 39.988 178.894 39.7158 180.031 39.1411C180.938 38.6783 181.798 37.9837 182.613 37.0573L182.57 39.5198L186.991 39.597L187.205 27.3379C187.221 26.4216 187.198 25.5913 187.137 24.847C187.075 24.1027 186.853 23.3557 186.47 22.6058C185.787 21.2561 184.763 20.2968 183.398 19.728C182.033 19.1591 180.466 18.8593 178.695 18.8284C176.28 18.7862 174.364 19.273 172.947 20.2887C171.529 21.3045 170.552 22.6376 170.016 24.288L174.56 25.8166C174.898 24.9059 175.472 24.278 176.283 23.9329C177.094 23.5879 177.871 23.4218 178.614 23.4348C179.952 23.4582 180.9 23.7534 181.46 24.3206C181.9 24.766 182.161 25.403 182.242 26.2317C181.385 26.3463 180.572 26.4552 179.805 26.5585C178.501 26.7215 177.334 26.8993 176.302 27.0919C175.271 27.2845 174.381 27.5105 173.634 27.7699C172.549 28.1474 171.68 28.6277 171.026 29.2108C170.384 29.7818 169.914 30.4486 169.616 31.2114C169.318 31.9742 169.161 32.8199 169.144 33.7486C169.125 34.8631 169.361 35.8891 169.852 36.8267C170.356 37.7521 171.099 38.5021 172.08 39.0766ZM179.22 35.5595C178.583 35.8705 177.8 36.0178 176.871 36.0016C176.29 35.9915 175.789 35.896 175.372 35.7153C174.954 35.5346 174.63 35.2812 174.4 34.9552C174.183 34.6169 174.078 34.2187 174.086 33.7606C174.092 33.4262 174.166 33.124 174.307 32.854C174.46 32.5842 174.687 32.3404 174.988 32.1227C175.302 31.8928 175.708 31.6831 176.207 31.4937C176.643 31.3403 177.147 31.2004 177.719 31.0741C178.291 30.9479 179.043 30.8124 179.975 30.6676C180.573 30.5666 181.29 30.4523 182.125 30.3248C182.107 30.6778 182.079 31.0766 182.041 31.5212C181.991 32.2387 181.831 32.8677 181.562 33.408C181.421 33.6904 181.154 34.0388 180.763 34.4531C180.384 34.8676 179.87 35.2364 179.22 35.5595Z" fill="white"/>
<path d="M152.867 4.47043L152.264 38.9908L157.316 39.079L157.919 4.55862L152.867 4.47043Z" fill="white"/>
<path d="M161.399 39.1503L162.001 4.62988L167.054 4.71806L166.451 39.2385L161.399 39.1503Z" fill="white"/>
<path fill-rule="evenodd" clip-rule="evenodd" d="M14.8983 16.6715L1.17865 16.432L1.07436 22.4067C0.918635 31.3282 8.0247 38.6867 16.9462 38.8424C25.8677 38.9982 33.2262 31.8921 33.382 22.9706L33.4863 16.9959L19.324 16.7487L19.4901 7.23345C19.5562 3.44487 16.5386 0.320005 12.75 0.253875C8.96143 0.187744 5.83657 3.20539 5.77044 6.99397L10.1961 7.07122C10.2196 5.72688 11.3284 4.65611 12.6728 4.67957C14.0171 4.70304 15.0879 5.81186 15.0644 7.1562L14.8983 16.6715ZM14.8211 21.0971L14.6743 29.506L19.1 29.5832L19.2468 21.1744L28.9833 21.3444L28.9563 22.8933C28.8432 29.3706 23.5007 34.5298 17.0234 34.4167C10.5462 34.3037 5.387 28.9612 5.50006 22.4839L5.5271 20.9349L14.8211 21.0971Z" fill="white"/>
</svg>
