<svg width="216" height="60" viewBox="0 0 216 60" fill="none" xmlns="http://www.w3.org/2000/svg">
<path fill-rule="evenodd" clip-rule="evenodd" d="M91.7428 44.3634L80.5472 26.0514L75.3092 25.96L74.993 44.071L71.1755 44.0044L71.9163 1.56772L85.3812 1.80275C86.8214 1.82789 88.168 2.12768 89.421 2.70213C90.6743 3.25684 91.7662 4.01596 92.6967 4.97947C93.6271 5.94298 94.3475 7.07057 94.8578 8.36225C95.3882 9.63453 95.6408 10.9908 95.6156 12.431L95.5557 15.8638C95.5306 17.304 95.2306 18.6605 94.6558 19.9332C94.1011 21.1865 93.342 22.2784 92.3785 23.2089C91.415 24.1393 90.2971 24.8697 89.0248 25.4001C87.7528 25.9108 86.3968 26.1535 84.9566 26.1284L96.1522 44.4403L91.7428 44.3634ZM91.7981 12.3643C91.8146 11.4174 91.6524 10.5363 91.3114 9.72125C90.9708 8.88644 90.5 8.1579 89.899 7.53563C89.2985 6.89364 88.587 6.38785 87.7646 6.01826C86.9619 5.64903 86.0871 5.45614 85.1401 5.43961L75.6702 5.27432L75.3727 22.32L84.8425 22.4853C85.7895 22.5018 86.6706 22.3396 87.4856 21.9986C88.3204 21.6579 89.049 21.1872 89.6713 20.5862C90.2939 19.9656 90.7898 19.2539 91.159 18.4512C91.5286 17.6288 91.7217 16.7441 91.7382 15.7972L91.7981 12.3643Z" fill="white"/>
<path fill-rule="evenodd" clip-rule="evenodd" d="M119.605 36.5315C119.584 37.7547 119.327 38.9047 118.834 39.9815C118.362 41.0587 117.714 41.9946 116.891 42.7894C116.068 43.5842 115.11 44.2088 114.016 44.6634C112.923 45.0982 111.765 45.3049 110.542 45.2836L108.115 45.2412C106.892 45.2199 105.742 44.9728 104.665 44.5001C103.588 44.0077 102.652 43.35 101.857 42.527C101.063 41.704 100.438 40.7458 99.9834 39.6525C99.5486 38.5595 99.3418 37.4014 99.3632 36.1782L99.6018 22.5061C99.6232 21.2829 99.8702 20.1327 100.343 19.0556C100.835 17.9788 101.493 17.043 102.316 16.2482C103.139 15.4534 104.097 14.8387 105.19 14.4038C106.283 13.9493 107.442 13.7327 108.665 13.754L111.092 13.7964C112.315 13.8177 113.465 14.0746 114.542 14.5671C115.619 15.0398 116.555 15.6876 117.349 16.5106C118.144 17.3336 118.759 18.2916 119.194 19.3846C119.648 20.478 119.865 21.6362 119.844 22.8594L119.605 36.5315ZM116.207 22.5887C116.22 21.8588 116.094 21.1757 115.829 20.5396C115.564 19.8837 115.199 19.3149 114.733 18.8331C114.268 18.3514 113.713 17.9667 113.066 17.6792C112.44 17.3919 111.762 17.2419 111.032 17.2292L108.605 17.1868C107.875 17.1741 107.182 17.3002 106.526 17.565C105.89 17.8302 105.331 18.1954 104.849 18.6606C104.368 19.1258 103.983 19.6816 103.695 20.3278C103.408 20.9543 103.258 21.6325 103.245 22.3625L103 36.4489C102.987 37.1788 103.113 37.8717 103.378 38.5276C103.643 39.1638 104.008 39.7227 104.473 40.2045C104.939 40.6862 105.484 41.0707 106.111 41.3579C106.757 41.6455 107.445 41.7957 108.175 41.8084L110.602 41.8508C111.332 41.8635 112.015 41.7373 112.651 41.4721C113.307 41.2073 113.876 40.8422 114.357 40.377C114.839 39.9118 115.224 39.3659 115.511 38.7394C115.798 38.0932 115.949 37.4051 115.961 36.6751L116.207 22.5887Z" fill="white"/>
<path fill-rule="evenodd" clip-rule="evenodd" d="M143.326 40.409C143.818 39.3322 144.075 38.1822 144.096 36.959L144.335 23.2869C144.356 22.0637 144.14 20.9055 143.685 19.8121C143.25 18.7191 142.636 17.7611 141.841 16.9381C141.046 16.1151 140.11 15.4673 139.033 14.9946C137.956 14.5021 136.806 14.2452 135.583 14.2239L134.665 14.2079C133.304 14.1841 132.037 14.4383 130.863 14.9704C129.689 15.5025 128.68 16.2545 127.834 17.2265L128.09 2.54824L124.45 2.4847L123.855 36.6057C123.833 37.8289 124.04 38.987 124.475 40.08C124.929 41.1733 125.554 42.1315 126.349 42.9545C127.143 43.7775 128.079 44.4352 129.156 44.9276C130.233 45.4003 131.383 45.6474 132.607 45.6687L135.033 45.7111C136.256 45.7324 137.415 45.5257 138.508 45.0909C139.601 44.6363 140.559 44.0116 141.382 43.2169C142.205 42.4221 142.853 41.4862 143.326 40.409ZM140.32 20.9671C140.585 21.6032 140.711 22.2863 140.699 23.0162L140.453 37.1026C140.44 37.8326 140.29 38.5207 140.002 39.1669C139.715 39.7934 139.331 40.3393 138.849 40.8045C138.367 41.2697 137.798 41.6347 137.142 41.8996C136.506 42.1648 135.823 42.291 135.093 42.2783L132.667 42.2359C131.937 42.2232 131.248 42.073 130.602 41.7854C129.976 41.4982 129.43 41.1137 128.965 40.632C128.499 40.1502 128.134 39.5913 127.869 38.9551C127.604 38.2992 127.478 37.6063 127.491 36.8764L127.737 22.79C127.75 22.06 127.899 21.3818 128.187 20.7553C128.474 20.1091 128.859 19.5533 129.341 19.0881C129.822 18.6229 130.381 18.2577 131.018 17.9925C131.673 17.7277 132.366 17.6016 133.096 17.6143L135.523 17.6567C136.253 17.6694 136.931 17.8194 137.558 18.1066C138.204 18.3942 138.76 18.7789 139.225 19.2606C139.69 19.7424 140.055 20.3112 140.32 20.9671Z" fill="white"/>
<path fill-rule="evenodd" clip-rule="evenodd" d="M168.588 37.3865C168.566 38.6097 168.309 39.7597 167.817 40.8365C167.344 41.9137 166.696 42.8496 165.873 43.6444C165.05 44.4391 164.092 45.0638 162.999 45.5184C161.906 45.9532 160.748 46.1599 159.525 46.1386L157.098 46.0962C155.875 46.0749 154.725 45.8278 153.647 45.3551C152.571 44.8627 151.635 44.205 150.84 43.382C150.045 42.559 149.421 41.6008 148.966 40.5075C148.531 39.4144 148.325 38.2564 148.346 37.0332L148.585 23.3611C148.606 22.1379 148.853 20.9877 149.326 19.9106C149.818 18.8338 150.476 17.898 151.299 17.1032C152.122 16.3084 153.08 15.6937 154.173 15.2588C155.266 14.8043 156.424 14.5877 157.648 14.609L160.074 14.6514C161.297 14.6727 162.447 14.9296 163.524 15.4221C164.601 15.8948 165.537 16.5426 166.332 17.3656C167.127 18.1886 167.742 19.1466 168.176 20.2396C168.631 21.333 168.848 22.4912 168.826 23.7144L168.588 37.3865ZM165.19 23.4437C165.203 22.7138 165.076 22.0307 164.811 21.3946C164.546 20.7387 164.181 20.1699 163.716 19.6881C163.251 19.2064 162.695 18.8217 162.049 18.5341C161.422 18.2469 160.744 18.0969 160.014 18.0842L157.588 18.0418C156.858 18.0291 156.165 18.1552 155.509 18.42C154.873 18.6852 154.314 19.0504 153.832 19.5156C153.35 19.9808 152.966 20.5366 152.678 21.1828C152.391 21.8093 152.241 22.4875 152.228 23.2175L151.982 37.3039C151.969 38.0338 152.096 38.7267 152.36 39.3826C152.626 40.0188 152.991 40.5777 153.456 41.0595C153.921 41.5412 154.467 41.9257 155.094 42.2129C155.74 42.5005 156.428 42.6507 157.158 42.6634L159.585 42.7058C160.314 42.7185 160.998 42.5923 161.634 42.3271C162.29 42.0622 162.858 41.6972 163.34 41.232C163.822 40.7668 164.206 40.2209 164.494 39.5944C164.781 38.9482 164.931 38.2601 164.944 37.5301L165.19 23.4437Z" fill="white"/>
<path d="M180.604 45.2928C181.584 45.7243 182.626 45.9497 183.73 45.969L187.045 46.0269L187.105 42.5645L183.791 42.5066C183.179 42.4959 182.609 42.3775 182.08 42.1511C181.552 41.9051 181.093 41.5813 180.706 41.1799C180.318 40.7784 180.01 40.3191 179.782 39.8021C179.575 39.2656 179.476 38.6916 179.487 38.08L179.819 19.0515L187.513 19.1858L187.574 15.7234L179.879 15.5891L180.017 7.71734L176.367 8.24567L176.24 15.5256L170.794 15.4306L170.734 18.893L176.179 18.988L175.85 37.8389C175.831 38.9437 176.02 39.9831 176.417 40.957C176.834 41.9313 177.392 42.7896 178.089 43.532C178.806 44.2747 179.645 44.8616 180.604 45.2928Z" fill="white"/>
<path d="M202.078 28.6464L210.5 46.4363L214.614 46.5081L204.193 24.5094L214.733 4.0606L210.62 3.9888L202.225 20.2715L194.373 3.70521L190.26 3.63341L200.08 24.4376L188.897 46.0592L193.04 46.1315L202.078 28.6464Z" fill="white"/>
<path fill-rule="evenodd" clip-rule="evenodd" d="M31.0876 0.855072C23.8273 0.728342 17.429 3.46498 12.4446 6.82386C7.46813 10.1774 3.7576 14.2452 1.82039 17.0504C1.41111 17.6431 1.31582 18.3978 1.56497 19.0736L10.7955 44.1104L4.86595 53.9633L8.65851 56.2457L15.1358 45.4827C15.482 44.9073 15.5483 44.2059 15.3161 43.5759L6.12794 18.6542C7.91881 16.318 10.9636 13.1595 14.9182 10.4946C19.4074 7.46942 24.9252 5.17455 31.0104 5.28077C36.7619 5.38116 40.9174 6.93492 43.9321 9.24999C46.961 11.576 49.003 14.7978 50.2958 18.4963C52.6685 25.2849 52.4129 33.3996 51.2982 39.4098L31.9654 39.0723L28.8327 30.0638C31.1659 28.465 32.7286 25.8387 32.7817 22.7985C32.8703 17.7221 28.7122 13.652 23.646 13.5636C18.5799 13.4752 14.2823 17.3977 14.1937 22.4741C14.1051 27.5505 18.2632 31.6206 23.3293 31.709C23.7911 31.717 24.2465 31.6918 24.6928 31.6354L28.292 41.9852C28.5968 42.8616 29.416 43.4549 30.3438 43.4711L53.0553 43.8675C54.1017 43.8858 55.0179 43.1685 55.2513 42.1483C56.7552 35.5756 57.4598 25.5776 54.4742 17.0358C52.9681 12.7267 50.4923 8.70684 46.628 5.73934C42.7495 2.7609 37.6365 0.969383 31.0876 0.855072ZM18.6194 22.5513C18.6631 20.0506 20.8134 17.9412 23.5688 17.9893C26.3242 18.0374 28.3996 20.2205 28.356 22.7213C28.3123 25.222 26.162 27.3314 23.4066 27.2833C20.6512 27.2352 18.5758 25.0521 18.6194 22.5513Z" fill="white"/>
</svg>
