<svg width="181" height="53" viewBox="0 0 181 53" fill="none" xmlns="http://www.w3.org/2000/svg">
<path d="M68.3513 10.0891L74.7296 10.2004L67.2573 39.9911L56.0403 39.7953L49.6123 9.762L55.9906 9.87333L60.7512 34.5973L62.7307 34.6319L68.3513 10.0891Z" fill="white"/>
<path d="M80.4367 31.7288C80.4424 33.0783 80.7772 34.0668 81.4409 34.6944C82.1345 35.2932 83.1265 35.6039 84.4168 35.6264C87.144 35.674 89.5796 35.6285 91.7234 35.4899L92.9574 35.3795L92.9694 39.7358C89.5826 40.4981 86.5256 40.8554 83.7983 40.8078C80.4845 40.75 78.0952 39.8282 76.6303 38.0426C75.1654 36.257 74.4675 33.3847 74.5367 29.4257C74.6743 21.5372 77.9837 17.6495 84.4646 17.7626C90.8575 17.8742 93.9962 21.2438 93.8805 27.8713L93.3692 31.9545L80.4367 31.7288ZM88.0809 27.3741C88.1117 25.6145 87.8543 24.3927 87.3089 23.7085C86.764 22.9949 85.7877 22.6259 84.3801 22.6013C83.0018 22.5772 82.013 22.9267 81.4137 23.6496C80.8443 24.3437 80.53 25.5409 80.471 27.2412L88.0809 27.3741Z" fill="white"/>
<path d="M96.9937 40.5101L97.3776 18.516L103.228 18.6181L103.187 20.9495C105.676 19.5262 108.039 18.6141 110.275 18.2131L110.172 24.1515C107.788 24.6086 105.741 25.0862 104.03 25.5844L103.145 25.877L102.888 40.613L96.9937 40.5101Z" fill="white"/>
<path d="M124.962 24.0137L119.551 23.9192L119.394 32.9368C119.378 33.8166 119.382 34.4473 119.405 34.8291C119.457 35.182 119.613 35.4927 119.872 35.7613C120.161 36.0303 120.599 36.17 121.185 36.1802L124.53 36.1506L124.712 40.8619C122.739 41.2675 121.24 41.4613 120.213 41.4434C117.574 41.3974 115.781 40.7794 114.833 39.5895C113.887 38.3702 113.441 36.1624 113.497 32.9659L113.657 23.8164L111.061 23.7711L111.149 18.7564L113.744 18.8017L113.851 12.6873L119.745 12.7902L119.639 18.9046L125.049 18.999L124.962 24.0137Z" fill="white"/>
<path d="M127.624 41.0448L128.008 19.0507L133.902 19.1536L133.518 41.1476L127.624 41.0448ZM128.057 16.2354L128.161 10.253L134.056 10.3559L133.951 16.3383L128.057 16.2354Z" fill="white"/>
<path d="M157.964 44.3024C157.92 46.8244 156.92 48.6697 154.963 49.8383C153.007 51.0068 150.372 51.5622 147.058 51.5043C143.773 51.447 141.244 50.9628 139.471 50.0519C137.727 49.1414 136.875 47.5278 136.915 45.2111C136.947 43.3636 138.034 41.6371 140.174 40.0318C139.101 39.2797 138.578 38.1559 138.605 36.6603C138.615 36.0738 139.072 35.1137 139.975 33.7801L140.381 33.1712C138.412 31.6994 137.452 29.5706 137.501 26.7846C137.55 23.9694 138.421 21.9459 140.115 20.7141C141.838 19.4828 144.092 18.8914 146.878 18.94C148.139 18.9621 149.383 19.1304 150.609 19.4452L151.311 19.5894L158.397 19.4931L158.315 24.1999L155.02 23.8783C155.648 24.8867 155.953 25.8894 155.936 26.8864C155.885 29.819 155.101 31.8294 153.586 32.9176C152.071 34.0059 149.716 34.5221 146.519 34.4663C145.845 34.4546 145.244 34.3854 144.719 34.2589C144.412 35.0162 144.254 35.6442 144.246 36.1427C144.238 36.6119 144.481 36.9388 144.977 37.1235C145.472 37.3082 146.643 37.4313 148.49 37.4928C152.185 37.5867 154.698 38.1292 156.03 39.1205C157.363 40.0825 158.007 41.8098 157.964 44.3024ZM142.732 44.6966C142.71 45.9576 144.239 46.615 147.318 46.6687C150.427 46.723 151.994 46.017 152.019 44.5507C152.033 43.7589 151.778 43.2411 151.254 42.9973C150.73 42.7828 149.618 42.646 147.917 42.587L143.964 42.21C143.158 42.988 142.748 43.8168 142.732 44.6966ZM143.398 26.7116C143.361 28.8523 144.457 29.9422 146.685 29.9811C148.943 30.0205 150.091 28.9698 150.129 26.8291C150.166 24.659 149.056 23.5542 146.798 23.5148C144.57 23.4759 143.436 24.5415 143.398 26.7116Z" fill="white"/>
<path d="M162.23 22.1561C163.82 20.1598 166.433 19.1934 170.069 19.2568C173.706 19.3203 176.283 20.3773 177.802 22.4279C179.322 24.4492 180.05 27.278 179.986 30.9144C179.852 38.6269 176.412 42.4244 169.667 42.3066C162.922 42.1889 159.617 38.2737 159.752 30.5612C159.815 26.9248 160.641 24.1231 162.23 22.1561ZM166.527 35.6516C167.124 36.7181 168.2 37.2649 169.755 37.292C171.309 37.3191 172.388 36.8099 172.993 35.7645C173.628 34.7195 173.964 33.068 174.004 30.8099C174.043 28.5519 173.764 26.9043 173.166 25.8671C172.597 24.8305 171.536 24.2986 169.982 24.2715C168.428 24.2444 167.334 24.7386 166.7 25.7543C166.095 26.7704 165.773 28.4075 165.734 30.6656C165.695 32.9236 165.959 34.5856 166.527 35.6516Z" fill="white"/>
<path fill-rule="evenodd" clip-rule="evenodd" d="M27.2844 7.69405C24.6693 6.55697 21.8277 6.03672 18.9794 6.17354C16.1311 6.31035 13.3524 7.10056 10.8584 8.48304L8.34198 9.87791L5.55224 4.8451L8.06865 3.45023C11.3347 1.63984 14.9734 0.60504 18.7033 0.425879C22.4333 0.246717 26.1544 0.927998 29.5789 2.41702C33.0034 3.90604 36.0395 6.16289 38.4523 9.01297C40.8651 11.8631 42.5899 15.23 43.4933 18.8533C44.3967 22.4766 44.4544 26.2592 43.6621 29.9084C42.8698 33.5576 41.2486 36.9756 38.924 39.8981C36.5994 42.8205 33.6337 45.169 30.2562 46.7619C26.8788 48.3548 22.5446 49.1383 19.4465 49.0842C16.3484 49.0302 14.5475 48.534 12.189 47.5085C9.8968 46.5118 7.82336 45.0734 6.08706 43.2754C4.35076 41.4775 2.98561 39.3551 2.06954 37.0295C1.15346 34.7039 0.704422 32.2207 0.748044 29.7216C0.791667 27.2224 1.3271 24.7564 2.32378 22.4642C3.32045 20.172 4.75885 18.0985 6.55684 16.3622C8.35483 14.6259 10.4772 13.2608 12.8028 12.3447C15.1284 11.4286 17.6116 10.9796 20.1107 11.0232C22.6099 11.0668 25.0759 11.6023 27.3681 12.599C29.6603 13.5956 31.7337 15.034 33.47 16.832C35.2063 18.63 36.5715 20.7524 37.4876 23.078C37.8816 24.0783 38.1892 25.1078 38.4084 26.1552C38.5591 24.1767 38.3926 22.1813 37.9099 20.2454C37.22 17.4785 35.9029 14.9074 34.0604 12.731C32.218 10.5545 29.8995 8.83112 27.2844 7.69405ZM8.17214 36.5056C8.60643 30.326 13.8109 25.5005 20.0775 25.6099C26.1018 25.715 30.986 30.3439 31.5486 36.202C31.6944 35.9229 31.8304 35.6383 31.9563 35.3488C32.6517 33.7496 33.0252 32.0291 33.0557 30.2855C33.0861 28.5419 32.7728 26.8094 32.1337 25.1869C31.4946 23.5644 30.5421 22.0837 29.3308 20.8293C28.1194 19.5749 26.6728 18.5713 25.0736 17.876C23.4744 17.1806 21.7539 16.8071 20.0103 16.7766C18.2667 16.7462 16.5342 17.0595 14.9117 17.6986C13.2892 18.3377 11.8085 19.2902 10.5541 20.5015C9.29969 21.7129 8.29615 23.1595 7.6008 24.7587C6.90545 26.3579 6.53189 28.0784 6.50145 29.822C6.47102 31.5656 6.78431 33.298 7.42342 34.9205C7.63828 35.466 7.88854 35.9954 8.17214 36.5056ZM25.8475 37.4422C25.7899 40.742 23.0682 43.3702 19.7685 43.3127C16.4687 43.2551 13.8405 40.5334 13.8981 37.2337C13.9557 33.9339 16.6773 31.3057 19.977 31.3633C23.2768 31.4209 25.905 34.1425 25.8475 37.4422Z" fill="white"/>
</svg>
