<svg width="201" height="56" viewBox="0 0 201 56" fill="none" xmlns="http://www.w3.org/2000/svg">
<path d="M3.98596 11.0984V11.0984C12.617 20.2641 27.1864 20.2641 35.8175 11.0984V11.0984" stroke="#191919" stroke-width="5.07051" stroke-linecap="square"/>
<path d="M3 28H36.8034" stroke="#191919" stroke-width="5.07051" stroke-linecap="square"/>
<path d="M3.98596 44.9019V44.9019C12.617 35.7361 27.1864 35.7361 35.8175 44.9019V44.9019" stroke="#191919" stroke-width="5.07051" stroke-linecap="square"/>
<path d="M67.9026 9.6524H88.8945V13.7595H72.1618V26.1823H87.272V30.2387H72.1618V45.9573H67.9026V9.6524ZM93.9777 9.6524H98.2876V45.9573H93.9777V9.6524ZM115.936 46.7686C113.468 46.7686 111.254 46.177 109.293 44.9939C107.333 43.8108 105.795 42.1882 104.679 40.1262C103.598 38.0304 103.057 35.681 103.057 33.0782C103.057 30.5767 103.564 28.2781 104.578 26.1823C105.626 24.0865 107.096 22.4132 108.989 21.1625C110.882 19.9117 113.079 19.2864 115.581 19.2864C118.116 19.2864 120.313 19.861 122.173 21.0104C124.032 22.1259 125.451 23.6808 126.432 25.6752C127.446 27.6696 127.953 29.9514 127.953 32.5204C127.953 33.0275 127.902 33.4669 127.801 33.8387H107.367C107.468 35.7993 107.941 37.4557 108.786 38.8079C109.631 40.16 110.696 41.1741 111.981 41.8502C113.299 42.5262 114.668 42.8643 116.088 42.8643C119.401 42.8643 121.953 41.3093 123.744 38.1994L127.395 39.9741C126.28 42.0699 124.758 43.7262 122.832 44.9432C120.939 46.1601 118.64 46.7686 115.936 46.7686ZM123.389 30.2894C123.322 29.2077 123.018 28.126 122.477 27.0443C121.936 25.9626 121.074 25.0499 119.891 24.3062C118.741 23.5625 117.288 23.1907 115.53 23.1907C113.502 23.1907 111.778 23.8498 110.358 25.1682C108.972 26.4527 108.06 28.1598 107.62 30.2894H123.389ZM139.093 32.8246L130.119 20.0977H134.986L141.679 29.6809L148.119 20.0977H153.139L144.113 32.8246L153.342 45.9573H148.322L141.578 36.0191L134.986 45.9573H129.966L139.093 32.8246ZM170.749 46.7686C168.146 46.7686 165.83 46.177 163.802 44.9939C161.774 43.777 160.202 42.1037 159.087 39.9741C157.971 37.8107 157.413 35.3261 157.413 32.5204V9.6524H161.723V32.7232C161.723 35.6641 162.501 38.0642 164.056 39.9234C165.611 41.7487 167.842 42.6614 170.749 42.6614C173.656 42.6614 175.887 41.7487 177.442 39.9234C179.031 38.0642 179.825 35.6641 179.825 32.7232V9.6524H184.084V32.5204C184.084 35.3261 183.543 37.8107 182.462 39.9741C181.414 42.1375 179.876 43.8108 177.848 44.9939C175.853 46.177 173.487 46.7686 170.749 46.7686ZM191.15 9.6524H195.409V45.9573H191.15V9.6524Z" fill="#191919"/>
</svg>
