<svg width="138" height="37" viewBox="0 0 138 37" fill="none" xmlns="http://www.w3.org/2000/svg">
<path d="M53.4013 10.4368L52.9726 34.9991L46.9895 34.8947L47.166 24.7828L37.8589 24.6204L37.6824 34.7322L31.6993 34.6278L32.128 10.0655L38.1111 10.1699L37.9432 19.7919L47.2503 19.9543L47.4182 10.3324L53.4013 10.4368Z" fill="white"/>
<path d="M59.2775 13.5493C58.2279 13.531 57.3701 13.2127 56.7042 12.5944C56.0621 11.9532 55.749 11.1778 55.7648 10.2681C55.7811 9.33502 56.1211 8.57096 56.7848 7.97589C57.4723 7.35789 58.3409 7.05805 59.3905 7.07638C60.4169 7.09429 61.2511 7.42385 61.8932 8.06505C62.5591 8.68334 62.8839 9.459 62.8676 10.392C62.8517 11.3018 62.5001 12.0656 61.8126 12.6836C61.1489 13.2787 60.3039 13.5673 59.2775 13.5493ZM62.2162 15.6306L61.8754 35.1545L55.8923 35.0501L56.2331 15.5262L62.2162 15.6306Z" fill="white"/>
<path d="M75.7819 30.3223L75.6933 35.3957L72.6493 35.3426C70.48 35.3047 68.798 34.7503 67.6033 33.6795C66.4091 32.5853 65.833 30.8369 65.8749 28.4344L66.0105 20.6668L63.6313 20.6253L63.718 15.6568L66.0972 15.6984L66.1803 10.9399L72.1634 11.0443L72.0804 15.8028L75.9991 15.8712L75.9124 20.8396L71.9936 20.7712L71.8568 28.6088C71.8466 29.1919 71.9793 29.6142 72.2547 29.8757C72.5301 30.1372 72.9944 30.2736 73.6475 30.285L75.7819 30.3223Z" fill="white"/>
<path d="M96.2066 25.6738C96.1968 26.2337 96.1516 26.8162 96.0711 27.4215L82.5303 27.1851C82.6025 28.3997 82.971 29.3394 83.6361 30.0044C84.3249 30.6464 85.1708 30.9762 86.1738 30.9937C87.6667 31.0197 88.7157 30.408 89.3208 29.1586L95.6888 29.2698C95.3399 30.547 94.7249 31.6913 93.8439 32.7025C92.9863 33.7142 91.9109 34.5004 90.6178 35.0612C89.3247 35.622 87.885 35.8885 86.2989 35.8608C84.3861 35.8274 82.6904 35.3895 81.2118 34.547C79.7332 33.7046 78.5873 32.5179 77.774 30.987C76.9607 29.4562 76.5718 27.6761 76.6072 25.6467C76.6427 23.6174 77.0818 21.8517 77.9247 20.3498C78.7909 18.8482 79.9775 17.7023 81.4847 16.9119C82.9918 16.1216 84.7134 15.7433 86.6494 15.7771C88.5388 15.8101 90.2114 16.2359 91.6671 17.0547C93.1228 17.8734 94.246 19.0247 95.0368 20.5085C95.8508 21.9927 96.2408 23.7145 96.2066 25.6738ZM90.111 23.9925C90.1289 22.9661 89.7933 22.1436 89.1041 21.5249C88.4149 20.9062 87.5454 20.5877 86.4958 20.5694C85.4928 20.5519 84.6363 20.8286 83.9263 21.3995C83.2397 21.9709 82.8053 22.7916 82.6233 23.8618L90.111 23.9925Z" fill="white"/>
<path d="M96.7683 25.9986C96.8037 23.9693 97.2429 22.2036 98.0857 20.7017C98.9519 19.2002 100.127 18.054 101.611 17.2632C103.118 16.4729 104.828 16.0944 106.74 16.1278C109.19 16.1705 111.22 16.8476 112.83 18.1591C114.464 19.4709 115.517 21.2976 115.989 23.6392L109.621 23.528C109.111 22.0258 108.086 21.2612 106.546 21.2344C105.45 21.2152 104.568 21.6315 103.9 22.4832C103.232 23.3115 102.884 24.5187 102.856 26.1049C102.829 27.6911 103.134 28.9214 103.772 29.7959C104.41 30.647 105.278 31.0821 106.374 31.1013C107.914 31.1281 108.965 30.3998 109.527 28.9163L115.895 29.0275C115.342 31.3045 114.226 33.0816 112.547 34.359C110.868 35.6363 108.816 36.2538 106.39 36.2115C104.477 36.1781 102.782 35.7402 101.303 34.8977C99.8476 34.0557 98.7133 32.8692 97.9001 31.3383C97.1101 29.8079 96.7329 28.028 96.7683 25.9986Z" fill="white"/>
<path d="M129.918 16.6024C132.158 16.6415 133.941 17.4192 135.268 18.9357C136.595 20.4289 137.236 22.47 137.191 25.0592L136.992 36.4657L131.043 36.3618L131.229 25.7602C131.251 24.4539 130.931 23.4333 130.267 22.6984C129.603 21.9635 128.7 21.5861 127.557 21.5661C126.414 21.5461 125.498 21.8918 124.809 22.6031C124.12 23.3144 123.764 24.3232 123.741 25.6295L123.556 36.2311L117.573 36.1267L118.025 10.2348L124.008 10.3393L123.851 19.3314C124.472 18.479 125.312 17.8053 126.371 17.3104C127.43 16.8156 128.612 16.5796 129.918 16.6024Z" fill="white"/>
<path d="M0.943486 21.248L1.31421 0.00918579L8.39533 0.132787L8.20476 11.0505C9.44899 10.595 10.7966 10.3569 12.2008 10.3814C18.3114 10.4881 23.1786 15.5282 23.0719 21.6388L22.8479 34.4733L15.7668 34.3497L15.9908 21.5152C16.0292 19.3154 14.277 17.5009 12.0772 17.4625C9.87833 17.4242 8.06453 19.1748 8.02458 21.3732C8.02456 21.3742 8.02454 21.3752 8.02452 21.3761L7.8005 34.2107L0.719379 34.0871L0.943405 21.2525C0.943431 21.251 0.943458 21.2495 0.943486 21.248Z" fill="white"/>
<path d="M16.238 7.35296L16.3616 0.271839L23.4427 0.39544L23.3191 7.47656L16.238 7.35296Z" fill="white"/>
</svg>
