<svg width="29" height="33" viewBox="0 0 29 33" fill="none" xmlns="http://www.w3.org/2000/svg">
<path d="M11.1847 14.022C10.2727 14.022 9.55273 14.822 9.55273 15.798C9.55273 16.774 10.2887 17.574 11.1847 17.574C12.0967 17.574 12.8167 16.774 12.8167 15.798C12.8327 14.822 12.0967 14.022 11.1847 14.022ZM17.0247 14.022C16.1127 14.022 15.3927 14.822 15.3927 15.798C15.3927 16.774 16.1287 17.574 17.0247 17.574C17.9367 17.574 18.6567 16.774 18.6567 15.798C18.6567 14.822 17.9367 14.022 17.0247 14.022Z" fill="white"/>
<path d="M24.8001 0.5979H3.36008C1.55208 0.5979 0.0800781 2.0699 0.0800781 3.8939V25.5259C0.0800781 27.3499 1.55208 28.8219 3.36008 28.8219H21.5041L20.6561 25.8619L22.7041 27.7659L24.6401 29.5579L28.0801 32.5979V3.8939C28.0801 2.0699 26.6081 0.5979 24.8001 0.5979ZM18.6241 21.4939C18.6241 21.4939 18.0481 20.8059 17.5681 20.1979C19.6641 19.6059 20.4641 18.2939 20.4641 18.2939C19.8081 18.7259 19.1841 19.0299 18.6241 19.2379C17.8241 19.5739 17.0561 19.7979 16.3041 19.9259C14.7681 20.2139 13.3601 20.1339 12.1601 19.9099C11.2481 19.7339 10.4641 19.4779 9.80808 19.2219C9.44008 19.0779 9.04008 18.9019 8.64008 18.6779C8.59208 18.6459 8.54408 18.6299 8.49608 18.5979C8.46408 18.5819 8.44808 18.5659 8.43208 18.5499C8.14408 18.3899 7.98408 18.2779 7.98408 18.2779C7.98408 18.2779 8.75208 19.5579 10.7841 20.1659C10.3041 20.7739 9.71208 21.4939 9.71208 21.4939C6.17608 21.3819 4.83208 19.0619 4.83208 19.0619C4.83208 13.9099 7.13608 9.7339 7.13608 9.7339C9.44008 8.0059 11.6321 8.0539 11.6321 8.0539L11.7921 8.2459C8.91208 9.0779 7.58408 10.3419 7.58408 10.3419C7.58408 10.3419 7.93608 10.1499 8.52808 9.8779C10.2401 9.1259 11.6001 8.9179 12.1601 8.8699C12.2561 8.8539 12.3361 8.8379 12.4321 8.8379C13.4081 8.7099 14.5121 8.6779 15.6641 8.8059C17.1841 8.9819 18.8161 9.4299 20.4801 10.3419C20.4801 10.3419 19.2161 9.1419 16.4961 8.3099L16.7201 8.0539C16.7201 8.0539 18.9121 8.0059 21.2161 9.7339C21.2161 9.7339 23.5201 13.9099 23.5201 19.0619C23.5201 19.0619 22.1601 21.3819 18.6241 21.4939Z" fill="white"/>
</svg>
