<svg width="32" height="33" viewBox="0 0 32 33" fill="none" xmlns="http://www.w3.org/2000/svg">
<path d="M29.6313 0.5979H2.3625C1.05625 0.5979 0 1.62915 0 2.90415V30.2854C0 31.5604 1.05625 32.5979 2.3625 32.5979H29.6313C30.9375 32.5979 32 31.5604 32 30.2917V2.90415C32 1.62915 30.9375 0.5979 29.6313 0.5979ZM9.49375 27.8666H4.74375V12.5917H9.49375V27.8666ZM7.11875 10.5104C5.59375 10.5104 4.3625 9.27915 4.3625 7.7604C4.3625 6.24165 5.59375 5.0104 7.11875 5.0104C8.6375 5.0104 9.86875 6.24165 9.86875 7.7604C9.86875 9.2729 8.6375 10.5104 7.11875 10.5104ZM27.2687 27.8666H22.525V20.4417C22.525 18.6729 22.4937 16.3917 20.0562 16.3917C17.5875 16.3917 17.2125 18.3229 17.2125 20.3167V27.8666H12.475V12.5917H17.025V14.6792H17.0875C17.7188 13.4792 19.2688 12.2104 21.575 12.2104C26.3813 12.2104 27.2687 15.3729 27.2687 19.4854V27.8666Z" fill="white"/>
</svg>
