<svg width="32" height="23" viewBox="0 0 32 23" fill="none" xmlns="http://www.w3.org/2000/svg">
<path d="M31.6812 5.19805C31.6812 5.19805 31.3688 2.9918 30.4062 2.02305C29.1875 0.748047 27.825 0.741797 27.2 0.666797C22.725 0.341797 16.0063 0.341797 16.0063 0.341797H15.9937C15.9937 0.341797 9.275 0.341797 4.8 0.666797C4.175 0.741797 2.8125 0.748047 1.59375 2.02305C0.63125 2.9918 0.325 5.19805 0.325 5.19805C0.325 5.19805 0 7.7918 0 10.3793V12.8043C0 15.3918 0.31875 17.9855 0.31875 17.9855C0.31875 17.9855 0.63125 20.1918 1.5875 21.1605C2.80625 22.4355 4.40625 22.3918 5.11875 22.5293C7.68125 22.773 16 22.848 16 22.848C16 22.848 22.725 22.8355 27.2 22.5168C27.825 22.4418 29.1875 22.4355 30.4062 21.1605C31.3688 20.1918 31.6812 17.9855 31.6812 17.9855C31.6812 17.9855 32 15.398 32 12.8043V10.3793C32 7.7918 31.6812 5.19805 31.6812 5.19805ZM12.6938 15.748V6.7543L21.3375 11.2668L12.6938 15.748Z" fill="white"/>
</svg>
